<svg width="1920" height="991" viewBox="0 0 1920 991" fill="none" xmlns="http://www.w3.org/2000/svg">
<rect width="1920" height="967.832" fill="white"/>
<rect x="845" y="923.875" width="35" height="58.763" fill="#F7F7F7"/>
<rect x="924" y="868.903" width="35" height="108.996" fill="#F7F7F7"/>
<rect x="1003" y="870.799" width="35" height="113.735" fill="#F7F7F7"/>
<rect x="1082" y="814.879" width="35" height="168.707" fill="#F7F7F7"/>
<rect x="1160" y="773.177" width="35" height="205.671" fill="#F7F7F7"/>
<rect x="1239" y="738.108" width="35" height="238.843" fill="#F7F7F7"/>
<rect x="1318" y="751.377" width="35" height="231.261" fill="#F7F7F7"/>
<rect x="1397" y="695.458" width="35" height="284.337" fill="#F7F7F7"/>
<rect x="1476" y="642.381" width="35" height="335.518" fill="#F7F7F7"/>
<rect x="1555" y="530.542" width="35" height="456.835" fill="#F7F7F7"/>
<rect x="1633" y="485.048" width="35" height="505.173" fill="#F7F7F7"/>
<rect x="1712" y="523.908" width="35" height="458.731" fill="#F7F7F7"/>
<rect x="1791" y="445.241" width="35" height="537.397" fill="#F7F7F7"/>
<rect x="1870" y="377" width="35" height="600.899" fill="#F7F7F7"/>
<g clip-path="url(#clip0)">
<g opacity="0.5">
<path opacity="0.5" d="M1828.87 111.529H1714.36V257.445H1828.87V111.529Z" fill="url(#paint0_linear)"/>
</g>
<path d="M1826.78 113.51H1715.85V254.336H1826.78V113.51Z" fill="#F2F2F2"/>
<path d="M1762.67 119.448H1724.5V120.578H1762.67V119.448Z" fill="#E0E0E0"/>
<path opacity="0.7" d="M1762.67 124.537H1724.5V125.668H1762.67V124.537Z" fill="#6C63FF"/>
<path d="M1806.5 119.448H1768.34V120.578H1806.5V119.448Z" fill="#E0E0E0"/>
<path d="M1812.47 151.687H1774.3V152.817H1812.47V151.687Z" fill="#E0E0E0"/>
<path d="M1813.36 154.796H1775.19V155.927H1813.36V154.796Z" fill="#E0E0E0"/>
<path d="M1815.15 157.907H1776.98V159.038H1815.15V157.907Z" fill="#E0E0E0"/>
<path d="M1812.47 201.738H1774.3V202.868H1812.47V201.738Z" fill="#E0E0E0"/>
<path d="M1813.36 204.849H1775.19V205.98H1813.36V204.849Z" fill="#E0E0E0"/>
<path d="M1815.15 207.958H1776.98V209.089H1815.15V207.958Z" fill="#E0E0E0"/>
<g opacity="0.5">
<path opacity="0.5" d="M1765.35 140.09H1724.8V179.114H1765.35V140.09Z" fill="url(#paint1_linear)"/>
</g>
<path d="M1764.97 140.94H1725.06V178.267H1764.97V140.94Z" fill="#F5F5F5"/>
<g opacity="0.5">
<path opacity="0.5" d="M1763.69 143.202H1726.46V167.52H1763.69V143.202Z" fill="url(#paint2_linear)"/>
</g>
<path d="M1763.43 143.485H1726.72V166.956H1763.43V143.485Z" fill="white"/>
<path opacity="0.4" d="M1723.6 166.109L1732.85 152.534L1736.73 158.471L1745.08 150.272L1752.23 158.471L1758.5 146.313L1774.6 170.632L1722.41 168.934L1723.6 166.109Z" fill="#6C63FF"/>
<path opacity="0.4" d="M1730.76 149.423C1732.24 149.423 1733.45 148.283 1733.45 146.878C1733.45 145.472 1732.24 144.333 1730.76 144.333C1729.28 144.333 1728.08 145.472 1728.08 146.878C1728.08 148.283 1729.28 149.423 1730.76 149.423Z" fill="#6C63FF"/>
<g opacity="0.5">
<path opacity="0.5" d="M1765.35 190.144H1724.8V229.168H1765.35V190.144Z" fill="url(#paint3_linear)"/>
</g>
<path d="M1764.97 190.991H1725.06V228.318H1764.97V190.991Z" fill="#F5F5F5"/>
<g opacity="0.5">
<path opacity="0.5" d="M1763.69 193.255H1726.46V217.574H1763.69V193.255Z" fill="url(#paint4_linear)"/>
</g>
<path d="M1763.43 193.536H1726.72V217.007H1763.43V193.536Z" fill="white"/>
<path opacity="0.4" d="M1723.6 216.16L1732.85 202.585L1736.73 208.525L1745.08 200.324L1752.23 208.525L1758.5 196.364L1774.6 220.683L1722.41 218.988L1723.6 216.16Z" fill="#BDBDBD"/>
<path opacity="0.4" d="M1730.76 199.476C1732.24 199.476 1733.45 198.337 1733.45 196.931C1733.45 195.526 1732.24 194.386 1730.76 194.386C1729.28 194.386 1728.08 195.526 1728.08 196.931C1728.08 198.337 1729.28 199.476 1730.76 199.476Z" fill="#BDBDBD"/>
<g opacity="0.5">
<path opacity="0.5" d="M1761.16 104.32L1731.17 247.437L1843.48 268.603L1873.47 125.486L1761.16 104.32Z" fill="url(#paint5_linear)"/>
</g>
<path d="M1762.22 106.538L1733.27 244.662L1842.07 265.167L1871.02 127.042L1762.22 106.538Z" fill="white"/>
<path d="M1846.01 128.955L1768.79 114.403L1768.56 115.512L1845.78 130.064L1846.01 128.955Z" fill="#E0E0E0"/>
<path d="M1824.04 233.798L1746.82 219.246L1746.59 220.356L1823.8 234.907L1824.04 233.798Z" fill="#E0E0E0"/>
<path d="M1805.15 236.868L1745.48 225.623L1745.25 226.732L1804.92 237.977L1805.15 236.868Z" fill="#E0E0E0"/>
<path opacity="0.7" d="M1766.37 236.194L1744.15 232.005L1743.91 233.114L1766.14 237.303L1766.37 236.194Z" fill="#6C63FF"/>
<path opacity="0.7" d="M1806.06 128.059L1767.45 120.784L1767.22 121.893L1805.83 129.168L1806.06 128.059Z" fill="#6C63FF"/>
<path d="M1835.73 140.28L1766.12 127.162L1765.89 128.271L1835.5 141.39L1835.73 140.28Z" fill="#E0E0E0"/>
<path opacity="0.7" d="M1781.74 136.739L1764.78 133.543L1764.55 134.652L1781.51 137.848L1781.74 136.739Z" fill="#3AD29F"/>
<path d="M1840.66 154.474L1763.45 139.922L1763.21 141.031L1840.43 155.583L1840.66 154.474Z" fill="#E0E0E0"/>
<g opacity="0.5">
<path opacity="0.5" d="M1770.25 166.868L1762.34 204.587L1831.66 217.65L1839.57 179.931L1770.25 166.868Z" fill="url(#paint6_linear)"/>
</g>
<path d="M1839.08 180.125L1770.64 167.227L1762.91 204.116L1831.35 217.014L1839.08 180.125Z" fill="white"/>
<path d="M1839.32 160.855L1762.11 146.303L1761.88 147.412L1839.09 161.964L1839.32 160.855Z" fill="#E0E0E0"/>
<path d="M1785.25 175.169L1776.76 173.57L1771.13 200.474L1779.61 202.073L1785.25 175.169Z" fill="#6C63FF"/>
<path d="M1798.59 186.911L1790.11 185.313L1786.33 203.341L1794.82 204.94L1798.59 186.911Z" fill="#3AD29F"/>
<path d="M1812.06 198.099L1803.58 196.5L1801.54 206.207L1810.03 207.805L1812.06 198.099Z" fill="#F55F44"/>
<path d="M1829.36 190.98L1820.88 189.381L1816.75 209.075L1825.24 210.673L1829.36 190.98Z" fill="#FDD835"/>
<path d="M1854.11 164.753C1850.43 161.124 1846.02 158.229 1841.15 156.24C1836.27 154.251 1831.03 153.206 1825.72 153.168C1820.41 153.13 1815.15 154.1 1810.24 156.019C1805.33 157.939 1800.88 160.77 1797.14 164.346C1782.08 178.749 1781.82 202.2 1796.56 216.908C1803.03 223.37 1811.71 227.451 1821.05 228.428C1830.39 229.406 1839.8 227.217 1847.6 222.25L1876.37 250.631C1876.73 250.982 1877.22 251.185 1877.73 251.195C1878.25 251.204 1878.74 251.02 1879.11 250.682L1886.28 244.144C1886.66 243.806 1886.87 243.343 1886.88 242.856C1886.89 242.368 1886.69 241.897 1886.34 241.546L1857.57 213.167C1863.09 205.998 1865.76 197.216 1865.13 188.363C1864.5 179.509 1860.6 171.15 1854.11 164.753ZM1845.15 210.385C1841.09 214.085 1835.96 216.561 1830.42 217.5C1824.88 218.438 1819.17 217.797 1814.01 215.657C1808.85 213.517 1804.47 209.974 1801.44 205.477C1798.4 200.979 1796.84 195.729 1796.95 190.39C1797.06 185.052 1798.84 179.864 1802.06 175.483C1805.28 171.102 1809.8 167.725 1815.04 165.779C1820.28 163.833 1826.02 163.405 1831.52 164.549C1837.02 165.694 1842.04 168.359 1845.94 172.208C1848.53 174.764 1850.57 177.779 1851.93 181.081C1853.29 184.383 1853.96 187.907 1853.88 191.452C1853.81 194.997 1853 198.493 1851.5 201.742C1850 204.99 1847.84 207.927 1845.15 210.385V210.385Z" fill="url(#paint7_linear)"/>
<path d="M1804.33 183.41C1801.13 183.41 1801.12 188.129 1804.33 188.129C1807.54 188.129 1807.54 183.41 1804.33 183.41Z" fill="url(#paint8_linear)"/>
<path d="M1826.65 168.293C1818.03 168.109 1810.19 172.208 1806.02 178.397C1804.66 180.417 1808.52 182.202 1809.88 180.192C1813.33 175.068 1819.89 171.814 1826.98 171.983C1834.42 172.16 1841.19 176.194 1844.77 181.792C1846.13 183.916 1849.69 181.986 1848.34 179.875C1843.99 173.094 1835.55 168.494 1826.65 168.293Z" fill="url(#paint9_linear)"/>
<path d="M1857.23 163.319C1853.55 159.69 1849.15 156.796 1844.27 154.806C1839.39 152.817 1834.15 151.773 1828.84 151.735C1823.53 151.697 1818.27 152.666 1813.36 154.586C1808.45 156.505 1804 159.336 1800.26 162.912C1785.2 177.315 1784.94 200.767 1799.68 215.474C1806.15 221.936 1814.83 226.016 1824.17 226.993C1833.51 227.971 1842.92 225.782 1850.72 220.814L1879.5 249.198C1879.85 249.549 1880.34 249.752 1880.85 249.761C1881.37 249.771 1881.86 249.586 1882.23 249.249L1889.41 242.711C1889.78 242.373 1889.99 241.909 1890 241.422C1890.01 240.935 1889.81 240.464 1889.46 240.113L1860.68 211.731C1866.2 204.564 1868.88 195.783 1868.25 186.93C1867.62 178.077 1863.72 169.717 1857.23 163.319V163.319ZM1848.27 208.932C1844.21 212.632 1839.09 215.109 1833.54 216.047C1828 216.985 1822.29 216.344 1817.13 214.204C1811.97 212.064 1807.6 208.521 1804.56 204.024C1801.53 199.526 1799.96 194.276 1800.07 188.937C1800.19 183.599 1801.96 178.411 1805.18 174.03C1808.4 169.649 1812.92 166.272 1818.16 164.326C1823.41 162.38 1829.14 161.952 1834.64 163.097C1840.14 164.241 1845.16 166.906 1849.06 170.755C1851.65 173.311 1853.69 176.326 1855.05 179.628C1856.42 182.93 1857.08 186.454 1857.01 189.999C1856.93 193.544 1856.12 197.041 1854.62 200.289C1853.13 203.538 1850.97 206.474 1848.27 208.932V208.932Z" fill="#6C63FF"/>
<path d="M1807.45 181.974C1804.25 181.974 1804.25 186.693 1807.45 186.693C1810.66 186.693 1810.66 181.974 1807.45 181.974Z" fill="#6C63FF"/>
<path d="M1829.77 166.859C1821.15 166.675 1813.31 170.775 1809.14 176.964C1807.78 178.983 1811.65 180.768 1813 178.758C1816.45 173.634 1823.01 170.38 1830.11 170.55C1837.54 170.726 1844.31 174.76 1847.89 180.359C1849.25 182.482 1852.81 180.552 1851.47 178.441C1847.1 171.642 1838.68 167.041 1829.77 166.859Z" fill="#6C63FF"/>
<path d="M1706.91 240.761H1706.01V245.568H1706.91V240.761Z" fill="#47E6B1"/>
<path d="M1708.99 243.587V242.74H1703.93V243.587H1708.99Z" fill="#47E6B1"/>
<path d="M1821.02 81.9248C1820.78 81.823 1820.58 81.6386 1820.47 81.4068C1820.35 81.175 1820.33 80.9121 1820.41 80.6681C1820.43 80.6303 1820.43 80.5913 1820.44 80.5519V80.5519C1820.44 80.4396 1820.41 80.328 1820.35 80.2335C1820.29 80.1391 1820.19 80.067 1820.08 80.028C1819.97 79.989 1819.85 79.9852 1819.73 80.0173C1819.62 80.0493 1819.52 80.1154 1819.45 80.2056V80.2056C1819.42 80.2371 1819.4 80.2712 1819.39 80.3073C1819.28 80.5413 1819.09 80.7296 1818.84 80.8363C1818.6 80.9431 1818.32 80.9607 1818.06 80.886C1818.02 80.8742 1817.98 80.8669 1817.94 80.8642C1817.82 80.8561 1817.7 80.885 1817.6 80.9467C1817.5 81.0084 1817.42 81.0995 1817.38 81.2061C1817.34 81.3127 1817.34 81.4289 1817.38 81.5372C1817.41 81.6456 1817.48 81.74 1817.58 81.8062V81.8062C1817.61 81.8295 1817.65 81.849 1817.69 81.8643C1817.93 81.9661 1818.13 82.1505 1818.24 82.3823C1818.36 82.6141 1818.38 82.877 1818.3 83.121C1818.28 83.1587 1818.28 83.1978 1818.27 83.2372C1818.26 83.351 1818.29 83.4645 1818.36 83.5604C1818.42 83.6564 1818.52 83.7293 1818.63 83.7681C1818.75 83.8069 1818.87 83.8094 1818.99 83.7752C1819.1 83.7409 1819.2 83.6719 1819.27 83.5787V83.5787C1819.29 83.5472 1819.31 83.513 1819.33 83.477C1819.44 83.243 1819.63 83.0547 1819.88 82.9479C1820.12 82.8412 1820.4 82.8235 1820.66 82.8982C1820.7 82.9101 1820.74 82.9174 1820.78 82.92V82.92C1820.9 82.9277 1821.01 82.8988 1821.11 82.8377C1821.21 82.7766 1821.29 82.6866 1821.33 82.5811C1821.37 82.4756 1821.38 82.3603 1821.34 82.2524C1821.31 82.1446 1821.24 82.0501 1821.14 81.9829V81.9829C1821.11 81.9588 1821.07 81.9392 1821.02 81.9248V81.9248Z" fill="#4D8AF0"/>
<path d="M1710.09 117.556C1709.85 117.455 1709.65 117.27 1709.54 117.038C1709.42 116.807 1709.41 116.544 1709.48 116.3C1709.5 116.262 1709.5 116.223 1709.51 116.183V116.183C1709.52 116.071 1709.48 115.96 1709.42 115.865C1709.36 115.771 1709.26 115.699 1709.15 115.66C1709.04 115.621 1708.92 115.617 1708.8 115.649C1708.69 115.681 1708.59 115.747 1708.52 115.837V115.837C1708.49 115.869 1708.47 115.903 1708.46 115.939C1708.35 116.173 1708.16 116.361 1707.91 116.468C1707.67 116.575 1707.39 116.592 1707.13 116.518C1707.09 116.506 1707.05 116.498 1707.01 116.496V116.496C1706.89 116.488 1706.77 116.517 1706.67 116.578C1706.57 116.639 1706.5 116.729 1706.46 116.835C1706.42 116.94 1706.41 117.056 1706.45 117.163C1706.48 117.271 1706.55 117.366 1706.64 117.433V117.433C1706.68 117.456 1706.71 117.476 1706.75 117.491C1707 117.593 1707.2 117.777 1707.31 118.009C1707.42 118.241 1707.44 118.504 1707.36 118.748C1707.35 118.786 1707.34 118.825 1707.34 118.864V118.864C1707.33 118.976 1707.36 119.088 1707.43 119.182C1707.49 119.277 1707.59 119.349 1707.7 119.388C1707.81 119.427 1707.93 119.431 1708.04 119.399C1708.16 119.367 1708.26 119.301 1708.33 119.21C1708.35 119.179 1708.37 119.145 1708.39 119.109C1708.5 118.875 1708.69 118.686 1708.94 118.58C1709.18 118.473 1709.46 118.455 1709.71 118.53C1709.75 118.542 1709.8 118.549 1709.84 118.552V118.552C1709.96 118.559 1710.07 118.53 1710.17 118.469C1710.27 118.408 1710.35 118.318 1710.39 118.213C1710.43 118.107 1710.43 117.992 1710.4 117.884C1710.37 117.776 1710.3 117.682 1710.2 117.615V117.615C1710.17 117.591 1710.13 117.572 1710.09 117.556Z" fill="#FDD835"/>
<path d="M1867.84 264.601C1867.59 264.499 1867.4 264.314 1867.28 264.083C1867.17 263.851 1867.15 263.588 1867.23 263.344C1867.24 263.306 1867.25 263.267 1867.25 263.228C1867.26 263.115 1867.23 263.004 1867.17 262.909C1867.1 262.815 1867.01 262.743 1866.9 262.704C1866.79 262.665 1866.66 262.661 1866.55 262.693C1866.44 262.725 1866.34 262.791 1866.27 262.881V262.881C1866.24 262.913 1866.22 262.947 1866.2 262.983C1866.1 263.217 1865.9 263.405 1865.66 263.512C1865.41 263.619 1865.14 263.636 1864.88 263.562C1864.84 263.55 1864.8 263.543 1864.76 263.54V263.54C1864.64 263.532 1864.52 263.561 1864.42 263.622C1864.32 263.683 1864.25 263.773 1864.2 263.879C1864.16 263.984 1864.16 264.1 1864.19 264.207C1864.23 264.315 1864.3 264.41 1864.39 264.477V264.477C1864.42 264.5 1864.46 264.52 1864.5 264.535C1864.75 264.637 1864.94 264.821 1865.06 265.053C1865.17 265.285 1865.19 265.548 1865.11 265.792C1865.1 265.83 1865.09 265.869 1865.09 265.908V265.908C1865.08 266.02 1865.11 266.132 1865.17 266.226C1865.24 266.321 1865.33 266.393 1865.44 266.432C1865.55 266.471 1865.68 266.475 1865.79 266.443C1865.9 266.411 1866 266.345 1866.07 266.254V266.254C1866.1 266.223 1866.12 266.189 1866.14 266.153C1866.24 265.919 1866.44 265.73 1866.68 265.624C1866.93 265.517 1867.2 265.499 1867.46 265.574C1867.5 265.586 1867.54 265.593 1867.58 265.596V265.596C1867.7 265.603 1867.82 265.575 1867.92 265.513C1868.02 265.452 1868.09 265.362 1868.14 265.257C1868.18 265.151 1868.18 265.036 1868.15 264.928C1868.11 264.82 1868.04 264.726 1867.95 264.659V264.659C1867.92 264.635 1867.88 264.616 1867.84 264.601V264.601Z" fill="#FDD835"/>
<path d="M1757 99.9381C1757.99 99.9381 1758.79 99.1781 1758.79 98.2407C1758.79 97.3032 1757.99 96.5432 1757 96.5432C1756.02 96.5432 1755.21 97.3032 1755.21 98.2407C1755.21 99.1781 1756.02 99.9381 1757 99.9381Z" fill="#F55F44"/>
<path d="M1885.23 121.145C1886.22 121.145 1887.02 120.385 1887.02 119.448C1887.02 118.51 1886.22 117.75 1885.23 117.75C1884.24 117.75 1883.44 118.51 1883.44 119.448C1883.44 120.385 1884.24 121.145 1885.23 121.145Z" fill="#F55F44"/>
<path d="M1875.09 171.763C1876.08 171.763 1876.88 171.003 1876.88 170.065C1876.88 169.128 1876.08 168.368 1875.09 168.368C1874.1 168.368 1873.3 169.128 1873.3 170.065C1873.3 171.003 1874.1 171.763 1875.09 171.763Z" fill="#4D8AF0"/>
<path opacity="0.5" d="M1676.79 88.6251C1677.78 88.6251 1678.58 87.8652 1678.58 86.9277C1678.58 85.9902 1677.78 85.2303 1676.79 85.2303C1675.8 85.2303 1675 85.9902 1675 86.9277C1675 87.8652 1675.8 88.6251 1676.79 88.6251Z" fill="#47E6B1"/>
</g>
<g clip-path="url(#clip1)">
<path d="M137.706 881.775C148.877 881.775 157.934 879.594 157.934 876.903C157.934 874.212 148.877 872.031 137.706 872.031C126.534 872.031 117.478 874.212 117.478 876.903C117.478 879.594 126.534 881.775 137.706 881.775Z" fill="#F2F2F2"/>
<path d="M139.215 827.897C150.387 827.897 159.443 825.716 159.443 823.025C159.443 820.335 150.387 818.154 139.215 818.154C128.044 818.154 118.988 820.335 118.988 823.025C118.988 825.716 128.044 827.897 139.215 827.897Z" fill="#F2F2F2"/>
<path d="M46.2278 830.19C57.3994 830.19 66.4557 828.009 66.4557 825.318C66.4557 822.627 57.3994 820.446 46.2278 820.446C35.0563 820.446 26 822.627 26 825.318C26 828.009 35.0563 830.19 46.2278 830.19Z" fill="#F2F2F2"/>
<path d="M148.46 679.146H32.8292V683.302H148.46V679.146Z" fill="#F5F5F5"/>
<path d="M150.271 678H30.7158V817.279H150.271V678Z" fill="url(#paint10_linear)"/>
<path d="M148.46 683.302H32.8292V814.987H148.46V683.302Z" fill="white"/>
<path d="M35.2082 682.299C35.7918 682.299 36.2649 681.85 36.2649 681.296C36.2649 680.742 35.7918 680.293 35.2082 680.293C34.6246 680.293 34.1515 680.742 34.1515 681.296C34.1515 681.85 34.6246 682.299 35.2082 682.299Z" fill="#FF5252"/>
<path d="M38.1126 682.299C38.6961 682.299 39.1692 681.85 39.1692 681.296C39.1692 680.742 38.6961 680.293 38.1126 680.293C37.529 680.293 37.0559 680.742 37.0559 681.296C37.0559 681.85 37.529 682.299 38.1126 682.299Z" fill="#FFFF00"/>
<path d="M41.0199 682.299C41.6035 682.299 42.0766 681.85 42.0766 681.296C42.0766 680.742 41.6035 680.293 41.0199 680.293C40.4363 680.293 39.9633 680.742 39.9633 681.296C39.9633 681.85 40.4363 682.299 41.0199 682.299Z" fill="#69F0AE"/>
<g opacity="0.2">
<path opacity="0.2" d="M81.1344 688.317H36.1501V690.896H81.1344V688.317Z" fill="#6C63FF"/>
</g>
<path d="M113.137 698.921H68.1524V701.5H113.137V698.921Z" fill="#F5F5F5"/>
<path opacity="0.5" d="M81.1344 782.03H36.1501V784.609H81.1344V782.03Z" fill="#6C63FF"/>
<path d="M102.268 781.743H87.1726V784.896H102.268V781.743Z" fill="url(#paint11_linear)"/>
<path d="M102.268 797.792H87.1726V800.944H102.268V797.792Z" fill="url(#paint12_linear)"/>
<path d="M133.063 797.792H117.967V800.944H133.063V797.792Z" fill="url(#paint13_linear)"/>
<path d="M101.966 782.03H87.7764V784.609H101.966V782.03Z" fill="#6C63FF"/>
<path d="M101.966 798.078H87.7764V800.658H101.966V798.078Z" fill="#6C63FF"/>
<path d="M132.459 798.078H118.269V800.658H132.459V798.078Z" fill="#6C63FF"/>
<path d="M81.1344 790.054H36.1501V792.633H81.1344V790.054Z" fill="#F5F5F5"/>
<path opacity="0.5" d="M132.761 790.054H87.7764V792.633H132.761V790.054Z" fill="#6C63FF"/>
<path d="M132.761 806.103H87.7764V808.682H132.761V806.103Z" fill="#F5F5F5"/>
<path opacity="0.5" d="M81.1344 798.078H36.1501V800.658H81.1344V798.078Z" fill="#6C63FF"/>
<path d="M81.1344 806.103H36.1501V808.682H81.1344V806.103Z" fill="#F5F5F5"/>
<path d="M93.5127 703.219H68.1524V705.799H93.5127V703.219Z" fill="#F5F5F5"/>
<path d="M106.797 703.219H98.0413V705.799H106.797V703.219Z" fill="#F5F5F5"/>
<path d="M93.5127 711.817H68.1524V714.396H93.5127V711.817Z" fill="#F5F5F5"/>
<path d="M106.797 711.817H98.0413V714.396H106.797V711.817Z" fill="#F5F5F5"/>
<path d="M113.137 707.518H68.1524V710.097H113.137V707.518Z" fill="#F5F5F5"/>
<g opacity="0.2">
<path opacity="0.2" d="M144.535 688.317H99.5508V690.896H144.535V688.317Z" fill="#6C63FF"/>
</g>
<path d="M130.345 698.634H124.911V701.786H130.345V698.634Z" fill="url(#paint14_linear)"/>
<path d="M130.345 702.933H124.911V706.085H130.345V702.933Z" fill="url(#paint15_linear)"/>
<path d="M130.345 707.232H124.911V710.384H130.345V707.232Z" fill="url(#paint16_linear)"/>
<path d="M130.044 698.921H125.213V701.5H130.044V698.921Z" fill="#FF5252"/>
<path d="M130.044 703.219H125.213V705.799H130.044V703.219Z" fill="#FF9800"/>
<path d="M130.044 707.518H125.213V710.097H130.044V707.518Z" fill="#69F0AE"/>
<path d="M130.345 711.53H124.911V714.683H130.345V711.53Z" fill="url(#paint17_linear)"/>
<path d="M130.044 711.817H125.213V714.396H130.044V711.817Z" fill="#6C63FF"/>
<path d="M146.045 730.158H35.2444V773.146H146.045V730.158Z" fill="url(#paint18_linear)"/>
<path opacity="0.5" d="M144.535 731.018H36.1501V771.713H144.535V731.018Z" fill="#6C63FF"/>
<path opacity="0.5" d="M39.4711 734.17H144.535V731.018H36.1501V771.713H39.4711V734.17Z" fill="white"/>
<path d="M147.051 727.457L35.8053 737.068L39.9644 780.449L151.211 770.839L147.051 727.457Z" fill="url(#paint19_linear)"/>
<path d="M145.656 728.726L37.7175 738.05L41.603 778.578L149.542 769.253L145.656 728.726Z" fill="white"/>
<path opacity="0.5" d="M45.775 771.309L43.9031 748.734C43.9031 748.734 53.5642 738.991 73.0674 746.213C92.5707 753.434 101.767 748.336 104.937 743.458C108.107 738.581 124.561 733.141 129.893 741.301C135.224 749.46 141.619 740.286 141.619 740.286L143.78 762.832L45.775 771.309Z" fill="#6C63FF"/>
<path d="M55.596 743.817L55.7591 745.53" stroke="#6C63FF" stroke-miterlimit="10"/>
<path d="M56.0761 748.815L57.809 766.887" stroke="#6C63FF" stroke-miterlimit="10" stroke-dasharray="11.51 11.51"/>
<path d="M57.966 768.529L58.1321 770.24" stroke="#6C63FF" stroke-miterlimit="10"/>
<path d="M74.1604 746.614L74.3264 748.325" stroke="#6C63FF" stroke-miterlimit="10"/>
<path d="M74.6827 752.053L75.9356 765.096" stroke="#6C63FF" stroke-miterlimit="10" stroke-dasharray="13.06 13.06"/>
<path d="M76.1137 766.958L76.2767 768.672" stroke="#6C63FF" stroke-miterlimit="10"/>
<path d="M93.1021 749.674L93.2832 751.385" stroke="#6C63FF" stroke-miterlimit="10"/>
<path d="M93.576 754.18L94.5965 763.952" stroke="#6C63FF" stroke-miterlimit="10" stroke-dasharray="9.79 9.79"/>
<path d="M94.7444 765.348L94.9226 767.061" stroke="#6C63FF" stroke-miterlimit="10"/>
<path d="M110.127 739.57L110.29 741.283" stroke="#6C63FF" stroke-miterlimit="10"/>
<path d="M110.598 744.502L112.297 762.21" stroke="#6C63FF" stroke-miterlimit="10" stroke-dasharray="11.28 11.28"/>
<path d="M112.451 763.817L112.617 765.531" stroke="#6C63FF" stroke-miterlimit="10"/>
<path d="M122.414 737.205L122.577 738.916" stroke="#6C63FF" stroke-miterlimit="10"/>
<path d="M122.903 742.321L124.7 761.043" stroke="#6C63FF" stroke-miterlimit="10" stroke-dasharray="11.93 11.93"/>
<path d="M124.863 762.746L125.029 764.456" stroke="#6C63FF" stroke-miterlimit="10"/>
<path d="M55.6761 745.134C56.5063 745.062 57.1181 744.365 57.0426 743.577C56.967 742.789 56.2327 742.208 55.4024 742.28C54.5722 742.351 53.9604 743.048 54.0359 743.836C54.1115 744.625 54.8458 745.205 55.6761 745.134Z" fill="#FF9800"/>
<path d="M74.1527 748.143C74.983 748.071 75.5948 747.374 75.5193 746.586C75.4437 745.798 74.7094 745.217 73.8791 745.289C73.0489 745.36 72.437 746.057 72.5126 746.846C72.5882 747.634 73.3225 748.214 74.1527 748.143Z" fill="#FF5252"/>
<path d="M93.2347 751.097C94.0649 751.026 94.6767 750.329 94.6012 749.54C94.5256 748.752 93.7913 748.172 92.961 748.243C92.1308 748.315 91.519 749.012 91.5945 749.8C91.6701 750.588 92.4044 751.169 93.2347 751.097Z" fill="#69F0AE"/>
<path d="M110.207 741.573C111.37 741.473 112.226 740.497 112.12 739.394C112.015 738.29 110.986 737.477 109.824 737.578C108.662 737.678 107.805 738.654 107.911 739.757C108.017 740.861 109.045 741.674 110.207 741.573Z" fill="url(#paint20_linear)"/>
<path d="M122.725 739.342C123.888 739.242 124.744 738.266 124.638 737.163C124.533 736.059 123.505 735.246 122.342 735.347C121.18 735.447 120.323 736.423 120.429 737.526C120.535 738.63 121.563 739.443 122.725 739.342Z" fill="url(#paint21_linear)"/>
<path d="M110.152 741.003C110.983 740.931 111.595 740.234 111.519 739.446C111.443 738.658 110.709 738.077 109.879 738.149C109.049 738.22 108.437 738.917 108.512 739.705C108.588 740.494 109.322 741.074 110.152 741.003Z" fill="#6C63FF"/>
<path d="M122.671 738.771C123.501 738.7 124.113 738.003 124.037 737.215C123.962 736.426 123.227 735.846 122.397 735.917C121.567 735.989 120.955 736.686 121.03 737.474C121.106 738.262 121.84 738.843 122.671 738.771Z" fill="#6C63FF"/>
<path d="M141.804 742.298C142.634 742.226 143.246 741.529 143.17 740.741C143.095 739.953 142.36 739.372 141.53 739.444C140.7 739.516 140.088 740.213 140.164 741.001C140.239 741.789 140.973 742.37 141.804 742.298Z" fill="#69F0AE"/>
<g opacity="0.2">
<path opacity="0.2" d="M144.728 769.34L144.749 769.408C144.982 769.281 144.728 769.34 144.728 769.34Z" fill="url(#paint22_linear)"/>
</g>
<g opacity="0.2">
<path opacity="0.2" d="M142.229 817.48L147.144 816.726L146.467 813.861V813.82H146.449L142.965 798.631V787.555C142.965 787.414 142.957 787.274 142.941 787.134C148.146 780.582 145.054 770.303 144.752 769.406C144.698 769.432 144.617 769.466 144.502 769.509C144.464 769.108 144.384 768.711 144.263 768.325C144.263 768.325 142.754 767.414 141.93 768.586C141.211 769.609 141.745 770.234 141.893 770.38L141.791 770.412C142.022 770.757 142.184 771.14 142.268 771.541C142.22 771.442 142.166 771.346 142.105 771.254C141.915 771.223 141.803 771.194 141.803 771.194L141.767 771.163L141.664 771.194C142.186 771.919 142.37 773.2 142.346 774.719C142.166 774.482 141.964 774.26 141.742 774.057C140.788 773.192 139.529 772.693 138.21 772.658H137.96C137.823 772.658 137.686 772.667 137.549 772.684H137.446L137.274 772.707L137.078 772.742L136.936 772.77L136.692 772.833L136.601 772.859C136.498 772.891 136.399 772.922 136.299 772.959C135.968 773.112 135.621 773.231 135.263 773.315C135.215 773.315 135.167 773.315 135.116 773.329C134.712 773.356 134.311 773.247 133.983 773.022L133.875 772.942C133.834 772.909 133.794 772.873 133.757 772.836C133.716 772.935 133.698 773.042 133.706 773.149C133.728 773.401 133.855 773.635 134.059 773.799C134.116 773.846 134.179 773.886 134.246 773.919C134.345 773.969 134.454 773.998 134.566 774.005H134.681H134.654C134.584 774.037 134.515 774.066 134.442 774.091H134.427C134.349 774.117 134.273 774.14 134.192 774.16C133.796 774.255 133.383 774.261 132.984 774.177L132.854 774.149C132.791 774.132 132.724 774.114 132.664 774.094C132.684 774.137 132.706 774.179 132.73 774.22L132.755 774.258L132.809 774.338L132.842 774.378L132.903 774.45L132.939 774.487L133.014 774.559L133.044 774.584L133.156 774.673L133.195 774.699L133.277 774.753L133.331 774.785L133.404 774.825L133.464 774.854L133.54 774.885L133.603 774.911L133.688 774.94L133.793 774.968L133.872 774.988H133.947H134.017H134.095H134.397C134.553 774.976 134.706 774.94 134.85 774.882L134.572 774.991L134.433 775.037L134.291 775.086L134.149 775.126L134.005 775.166L133.863 775.2L133.712 775.235L133.573 775.261L133.413 775.286L133.28 775.306L133.108 775.327H132.984H132.788H132.685H132.383C132.55 775.373 132.705 775.451 132.839 775.556C132.926 775.615 133.02 775.663 133.12 775.699C133.165 775.711 133.21 775.721 133.256 775.728H133.295H133.392H133.799H133.932C134.207 775.754 134.474 775.835 134.714 775.966C134.841 776.043 134.954 776.14 135.049 776.252C135.007 776.318 134.965 776.381 134.928 776.45C134.892 776.519 134.865 776.565 134.835 776.625C134.774 776.743 134.721 776.865 134.675 776.989C134.503 777.434 134.415 777.904 134.415 778.379C134.415 778.468 134.415 778.553 134.415 778.639C134.415 778.662 134.415 778.688 134.415 778.711C134.415 778.78 134.423 778.849 134.439 778.917V778.972C134.451 779.056 134.467 779.139 134.488 779.221V779.27C134.504 779.339 134.522 779.407 134.542 779.473L134.56 779.534C134.611 779.696 134.672 779.855 134.744 780.009L134.765 780.055C134.8 780.126 134.835 780.195 134.871 780.262V780.282C134.915 780.358 134.962 780.433 135.01 780.508V780.525C135.054 780.594 135.101 780.661 135.152 780.726L135.17 780.749C135.278 780.891 135.396 781.025 135.523 781.153V781.153C135.852 781.482 136.237 781.756 136.661 781.964C136.647 782.025 136.636 782.088 136.628 782.15V782.15C136.624 782.215 136.624 782.28 136.628 782.345V783.858C136.538 783.904 136.449 783.953 136.362 784.004C132.58 782.374 126.946 770.821 126.946 770.821H126.81C127.36 770.432 126.81 768.735 126.81 768.735C126.488 768.553 126.127 768.439 125.753 768.403H125.451H125.397H125.358H125.304H125.267L125.207 768.42H125.177L125.086 768.451L125.002 768.489L124.971 768.503L124.914 768.535L124.875 768.709L124.821 768.744L124.787 768.77L124.736 768.81L124.703 768.838L124.651 768.884L124.621 768.916L124.57 768.973L124.546 769.002L124.47 769.099C123.646 770.271 124.47 770.925 124.47 770.925C124.417 771.377 124.392 771.831 124.395 772.286C124.334 780.729 133.854 787.271 134.34 787.598C134.125 788.125 132.356 792.797 134.361 798.629C134.367 798.643 134.375 798.656 134.385 798.669C132.102 800.665 130.408 803.193 129.47 806.002C128.532 808.81 128.382 811.803 129.035 814.683L129.074 814.858H129.162C129.153 814.897 129.142 814.935 129.129 814.972C129.105 815.042 129.076 815.109 129.041 815.173C128.981 815.283 128.907 815.386 128.821 815.48V815.48C128.727 815.583 128.618 815.686 128.504 815.792L128.383 815.901C127.903 816.337 127.417 816.761 127.779 816.933H132.975V814.78H133.066C133.066 814.78 133.029 814.715 132.975 814.586V814.563H132.957C132.685 813.898 132.051 811.84 133.066 808.671C134.3 804.759 139.104 802.804 139.104 802.804L139.191 803.091H139.173L142.941 814.841C142.941 814.886 142.941 814.932 142.926 814.981C142.909 815.092 142.882 815.201 142.844 815.308C142.816 815.39 142.781 815.47 142.742 815.549C142.509 816.004 142.108 816.54 141.933 816.941C141.908 816.996 141.886 817.053 141.869 817.11C141.849 817.175 141.841 817.243 141.848 817.311C141.853 817.354 141.871 817.395 141.899 817.429C141.928 817.463 141.965 817.488 142.008 817.503V817.503H142.078L142.222 817.48H142.229ZM140.773 784.027C140.679 783.978 140.578 783.931 140.471 783.887V782.465C140.471 782.357 140.459 782.248 140.438 782.142C140.764 781.994 141.068 781.808 141.344 781.588C141.163 782.465 140.96 783.305 140.776 784.027H140.773Z" fill="url(#paint23_linear)"/>
</g>
<path d="M124.386 772.174C124.386 772.174 123.48 771.452 124.386 770.151C125.291 768.85 126.973 769.864 126.973 769.864C126.973 769.864 127.577 771.741 126.973 772.174C126.369 772.607 124.386 772.174 124.386 772.174Z" fill="#CA7070"/>
<path d="M133.793 820.509H129.6C129.615 820.697 129.588 820.885 129.52 821.062C129.451 821.238 129.344 821.399 129.204 821.532C128.64 822.151 127.504 822.899 128.039 823.154H133.793V820.509Z" fill="#00695C"/>
<path opacity="0.2" d="M129.509 821.532C129.649 821.399 129.756 821.238 129.825 821.062C129.893 820.885 129.92 820.697 129.905 820.509H129.603C129.618 820.697 129.591 820.885 129.523 821.062C129.454 821.238 129.347 821.399 129.207 821.532C128.643 822.151 127.507 822.899 128.042 823.154H128.344C127.809 822.899 128.945 822.154 129.509 821.532Z" fill="white"/>
<path d="M148.726 819.69L144.801 820.294C144.909 820.738 144.846 821.204 144.623 821.607C144.194 822.467 143.231 823.538 143.811 823.771L149.492 822.911L148.726 819.69Z" fill="#00695C"/>
<path d="M146.811 770.412C146.811 770.412 151.301 783.855 143.771 791.298L141.598 789.719C141.598 789.719 146.048 775.046 143.557 771.601C147.953 770.211 146.811 770.412 146.811 770.412Z" fill="#00695C"/>
<path d="M143.708 771.598C143.708 771.598 142.802 770.876 143.708 769.575C144.614 768.274 146.295 769.288 146.295 769.288C146.295 769.288 146.899 771.165 146.295 771.598C145.691 772.031 143.708 771.598 143.708 771.598Z" fill="#CA7070"/>
<path opacity="0.2" d="M144.925 821.61C145.149 821.206 145.212 820.739 145.103 820.294L148.726 819.721V819.675L144.801 820.294C144.909 820.738 144.846 821.204 144.623 821.607C144.194 822.467 143.231 823.538 143.811 823.771L144.049 823.733C143.617 823.447 144.514 822.418 144.925 821.61Z" fill="white"/>
<path d="M142.111 784.959C142.111 783.841 141.157 782.935 139.981 782.935C138.804 782.935 137.851 783.841 137.851 784.959V786.905C137.851 788.022 138.804 788.928 139.981 788.928C141.157 788.928 142.111 788.022 142.111 786.905V784.959Z" fill="#CA7070"/>
<path opacity="0.2" d="M141.902 790.584C141.902 790.584 146.298 776.092 143.904 772.529C143.693 772.492 143.557 772.464 143.557 772.464L143.518 772.429L143.406 772.464C145.897 775.903 141.447 790.581 141.447 790.581L143.62 792.16L143.811 791.966L141.902 790.584Z" fill="white"/>
<path d="M140.058 785.03C142.662 785.03 144.774 783.026 144.774 780.554C144.774 778.082 142.662 776.077 140.058 776.077C137.453 776.077 135.342 778.082 135.342 780.554C135.342 783.026 137.453 785.03 140.058 785.03Z" fill="#CA7070"/>
<path opacity="0.2" d="M138.382 786.907V784.959C138.382 784.816 138.399 784.674 138.431 784.534C137.51 784.085 136.77 783.361 136.326 782.474C135.881 781.586 135.757 780.584 135.972 779.623C136.187 778.662 136.729 777.794 137.515 777.154C138.301 776.515 139.287 776.138 140.32 776.083H140.055C138.997 776.083 137.97 776.42 137.138 777.041C136.307 777.662 135.719 778.53 135.47 779.505C135.221 780.481 135.325 781.508 135.765 782.422C136.205 783.335 136.955 784.081 137.896 784.54C137.864 784.68 137.848 784.822 137.848 784.964V786.913C137.845 787.201 137.908 787.486 138.031 787.749C138.155 788.011 138.336 788.246 138.564 788.436C138.791 788.626 139.059 788.768 139.349 788.851C139.639 788.935 139.945 788.958 140.245 788.919C139.73 788.856 139.257 788.617 138.914 788.247C138.571 787.876 138.382 787.4 138.382 786.907V786.907Z" fill="white"/>
<path d="M144.849 802.864C144.849 802.864 135.753 803.839 135.417 802.864C133.06 796.003 135.417 790.59 135.417 790.59C135.417 789.403 135.914 788.264 136.799 787.425C137.683 786.585 138.883 786.114 140.133 786.114V786.114C141.384 786.114 142.583 786.585 143.468 787.425C144.352 788.264 144.849 789.403 144.849 790.59V802.864Z" fill="#00695C"/>
<path d="M144.849 802.864L148.958 820.773H144.849L140.589 807.487C140.589 807.487 135.264 809.654 133.896 813.987C132.528 818.32 133.896 820.773 133.896 820.773H129.482L129.437 820.578C128.711 817.387 128.881 814.071 129.93 810.962C130.979 807.853 132.87 805.061 135.414 802.864" fill="#263238"/>
<path opacity="0.2" d="M135.949 802.864C133.591 796.004 135.949 790.59 135.949 790.59C135.949 789.453 136.404 788.358 137.224 787.528C138.043 786.698 139.164 786.196 140.36 786.122C140.26 786.122 140.157 786.122 140.058 786.122C138.807 786.122 137.608 786.594 136.723 787.433C135.839 788.273 135.342 789.411 135.342 790.599C135.342 790.599 132.984 796.015 135.342 802.873C135.463 803.223 136.707 803.32 138.252 803.306C136.996 803.28 136.045 803.165 135.949 802.864Z" fill="white"/>
<path d="M135.342 790.515C135.342 790.515 123.172 782.428 124.389 772.174H127.127C127.127 772.174 133.666 785.618 137.857 786.907C142.047 788.197 135.342 790.515 135.342 790.515Z" fill="#00695C"/>
<g opacity="0.2">
<path opacity="0.2" d="M140.668 807.802L144.849 820.845H145.453L141.193 807.559C141.193 807.559 140.997 807.639 140.668 807.802Z" fill="white"/>
<path opacity="0.2" d="M136.024 802.936H135.421C132.876 805.132 130.985 807.925 129.936 811.034C128.887 814.143 128.717 817.459 129.443 820.65L129.488 820.845H130.092L130.047 820.65C129.32 817.459 129.49 814.143 130.54 811.034C131.589 807.925 133.48 805.132 136.024 802.936V802.936Z" fill="white"/>
</g>
<path opacity="0.2" d="M124.845 772.32H124.389C123.181 782.574 135.342 790.662 135.342 790.662L135.644 790.553C134.234 789.564 123.706 781.892 124.845 772.32Z" fill="white"/>
<path d="M136.296 778.553C136.559 779.13 136.744 779.736 136.846 780.356C137.147 781.611 137.83 782.864 139.004 783.509C139.655 783.843 140.378 784.031 141.118 784.056C142.241 784.122 143.457 783.915 144.251 783.159C144.746 782.646 145.078 782.011 145.208 781.328C145.446 780.317 145.413 779.267 145.113 778.271C144.813 777.276 144.255 776.368 143.491 775.63C142.705 774.911 141.722 774.416 140.654 774.204C139.586 773.991 138.476 774.069 137.452 774.43C137.087 774.599 136.703 774.732 136.308 774.825C136.006 774.871 135.696 774.847 135.405 774.755C135.115 774.664 134.852 774.507 134.639 774.298C134.59 774.448 134.579 774.607 134.607 774.763C134.635 774.918 134.701 775.065 134.801 775.191C134.9 775.317 135.029 775.419 135.178 775.489C135.326 775.559 135.49 775.595 135.656 775.593C135.307 775.752 134.928 775.844 134.542 775.864C134.155 775.883 133.769 775.83 133.404 775.708C133.611 776.121 133.974 776.445 134.422 776.615C134.87 776.784 135.369 776.787 135.819 776.622C134.964 776.983 134.037 777.163 133.102 777.149C133.298 777.149 133.682 777.493 133.92 777.562C134.22 777.607 134.523 777.627 134.826 777.622C135.136 777.64 135.435 777.736 135.693 777.9C135.952 778.063 136.16 778.289 136.296 778.553V778.553Z" fill="#263238"/>
<g opacity="0.2">
<path opacity="0.2" d="M135.668 775.587C135.319 775.748 134.939 775.841 134.551 775.86C135.042 775.883 135.531 775.79 135.973 775.587C135.825 775.588 135.679 775.56 135.544 775.504C135.408 775.449 135.286 775.367 135.186 775.264C135.085 775.162 135.008 775.04 134.96 774.908C134.912 774.776 134.893 774.635 134.904 774.495C134.813 774.435 134.728 774.367 134.651 774.292C134.602 774.442 134.591 774.602 134.619 774.757C134.647 774.912 134.713 775.059 134.813 775.185C134.912 775.311 135.041 775.414 135.19 775.483C135.338 775.553 135.502 775.589 135.668 775.587Z" fill="white"/>
<path opacity="0.2" d="M136.622 774.828C137.017 774.735 137.401 774.602 137.766 774.432C138.344 774.216 138.957 774.099 139.578 774.086C138.856 774.063 138.137 774.181 137.464 774.432C137.099 774.602 136.715 774.735 136.32 774.828C136.266 774.828 136.212 774.828 136.157 774.845C136.312 774.858 136.469 774.853 136.622 774.828V774.828Z" fill="white"/>
<path opacity="0.2" d="M134.21 777.565C133.971 777.499 133.588 777.158 133.392 777.152C134.327 777.166 135.254 776.986 136.109 776.625C135.917 776.7 135.712 776.741 135.505 776.745C134.735 777.026 133.915 777.165 133.09 777.152C133.286 777.152 133.669 777.496 133.908 777.565C134.115 777.613 134.329 777.629 134.542 777.613C134.43 777.611 134.318 777.594 134.21 777.565Z" fill="white"/>
<path opacity="0.2" d="M141.428 784.059C140.689 784.034 139.966 783.846 139.315 783.511C138.141 782.861 137.47 781.608 137.156 780.359C137.055 779.738 136.87 779.133 136.607 778.556C136.468 778.29 136.257 778.064 135.995 777.901C135.734 777.739 135.431 777.645 135.119 777.631C134.968 777.62 134.816 777.62 134.666 777.631H134.814C135.126 777.645 135.429 777.739 135.69 777.901C135.952 778.064 136.163 778.29 136.302 778.556C136.565 779.133 136.75 779.738 136.852 780.359C137.153 781.614 137.836 782.867 139.01 783.511C139.661 783.846 140.384 784.034 141.124 784.059C141.299 784.059 141.474 784.059 141.652 784.059H141.428Z" fill="white"/>
<path opacity="0.2" d="M135.315 776.734C134.995 776.712 134.687 776.615 134.417 776.451C134.147 776.287 133.924 776.062 133.769 775.797C133.649 775.772 133.531 775.741 133.416 775.702C133.585 776.036 133.857 776.314 134.196 776.499C134.535 776.683 134.925 776.765 135.315 776.734V776.734Z" fill="white"/>
</g>
<path opacity="0.2" d="M124.691 772.174C124.691 772.174 123.785 771.452 124.691 770.151C124.811 769.965 124.976 769.808 125.172 769.694C125.369 769.58 125.59 769.512 125.82 769.495C125.54 769.463 125.257 769.509 125.004 769.625C124.75 769.741 124.537 769.924 124.389 770.151C123.483 771.452 124.389 772.174 124.389 772.174C124.976 772.299 125.577 772.362 126.179 772.363C125.678 772.34 125.18 772.276 124.691 772.174V772.174Z" fill="white"/>
<g opacity="0.2">
<path opacity="0.2" d="M37.1615 772.243L37.1857 772.166C37.1857 772.166 36.8777 772.108 37.1615 772.243Z" fill="url(#paint24_linear)"/>
</g>
<g opacity="0.2">
<path opacity="0.2" d="M65.6103 777.046C65.5812 776.955 65.5449 776.866 65.5016 776.78C65.5016 776.751 65.4714 776.728 65.4563 776.702C65.429 776.651 65.3988 776.601 65.3658 776.553L65.3054 776.479C65.2742 776.44 65.2409 776.402 65.2058 776.367L65.1363 776.301C65.1001 776.269 65.0639 776.241 65.0276 776.215L64.9522 776.163L64.8314 776.095L64.7559 776.057L64.6201 776.003L64.5506 775.977C64.4862 775.956 64.4208 775.939 64.3544 775.926C63.9151 775.847 63.4631 775.858 63.029 775.96C63.029 775.96 61.764 777.731 62.2501 778.367L62.0901 778.321C62.0901 778.321 52.6917 788.277 47.3902 790.126C47.2553 790.038 47.1154 789.956 46.9705 789.879V788.016C46.9749 787.938 46.9749 787.86 46.9705 787.781V787.781C46.9614 787.707 46.9483 787.634 46.9313 787.561L46.9705 787.541L47.1275 787.458L47.3539 787.326L47.4989 787.237C47.6076 787.166 47.7082 787.092 47.8008 787.013L47.9185 786.916C47.991 786.859 48.0604 786.798 48.1268 786.735L48.2476 786.624C48.3321 786.542 48.4126 786.457 48.4891 786.371L48.5737 786.274C48.6461 786.188 48.7156 786.1 48.782 786.01L48.8665 785.89C48.9269 785.802 48.9842 785.712 49.0386 785.621L49.0929 785.532C49.1594 785.414 49.2228 785.291 49.2771 785.165L49.3254 785.053C49.3677 784.952 49.4069 784.85 49.4431 784.747C49.4431 784.709 49.4703 784.675 49.4794 784.638C49.5216 784.503 49.5609 784.368 49.5911 784.228C49.5911 784.199 49.5911 784.173 49.6062 784.145C49.6303 784.028 49.6495 783.91 49.6635 783.789C49.6635 783.749 49.6635 783.709 49.6635 783.669C49.6635 783.523 49.6877 783.382 49.6877 783.225C49.6878 782.11 49.285 781.028 48.5465 780.161C48.948 779.565 49.2107 779.213 49.2107 779.213C48.9692 779.055 48.7306 778.912 48.4952 778.771L48.2657 778.642C48.1087 778.553 47.9638 778.465 47.7947 778.384L47.5321 778.253C47.3902 778.181 47.2513 778.112 47.1124 778.049L46.8437 777.932L46.4422 777.765L46.1795 777.665C46.0467 777.616 45.9138 777.57 45.784 777.528L45.5365 777.447C45.4006 777.407 45.2647 777.37 45.1319 777.336L44.9115 777.278C44.7606 777.244 44.6096 777.215 44.4617 777.186L44.3017 777.155C44.0994 777.121 43.9001 777.095 43.6978 777.078C42.4625 776.952 41.2139 777.134 40.0749 777.605C40.1353 776.235 40.3769 775.106 40.8841 774.407L40.7603 774.366L40.718 774.407C40.718 774.407 40.5701 774.438 40.3376 774.478C40.2642 774.59 40.1987 774.705 40.1414 774.825C40.2428 774.34 40.4384 773.878 40.718 773.461L40.5942 773.421C40.7724 773.246 41.4184 772.492 40.552 771.257C39.5557 769.841 37.7321 770.942 37.7321 770.942C37.5876 771.409 37.4925 771.889 37.4483 772.375C37.3095 772.32 37.2098 772.28 37.1464 772.249C36.2728 775.175 35.797 778.195 35.7305 781.236C32.4427 785.666 31.0841 792.206 30.8184 793.616L30.7973 793.728C30.7792 793.831 30.7701 793.886 30.7701 793.886L39.3172 794.075C39.3172 794.104 39.3172 794.129 39.3172 794.158V807.005L33.0948 819.498C33.0948 819.498 35.4618 819.569 39.0243 820.002L38.0401 826.682L37.711 828.557H43.6344C44.2926 827.307 41.0018 826.682 41.0018 826.682H40.9293L42.2125 820.449C42.78 820.539 43.3637 820.634 43.9635 820.736C44.8429 820.897 45.7342 820.993 46.6294 821.022C47.3704 821.047 48.1124 821.016 48.8484 820.931C49.2831 824.309 48.7125 826.327 48.6038 826.662H48.5706L48.2416 828.537H54.165C54.7386 827.447 52.3113 826.831 51.6803 826.694L51.7075 826.51C52.0121 824.403 52.09 822.271 51.9399 820.148C52.7043 819.854 53.4169 819.451 54.0533 818.953V818.953L54.1348 818.884L54.159 818.861L49.7481 807.112C50.5723 803.787 47.7042 800.297 49.2348 798.551C50.7655 796.806 49.8386 794.579 49.6575 794.198C53.7997 792.479 62.1716 788.18 64.5204 780.729C64.6929 780.205 64.8331 779.672 64.9401 779.132C64.9401 779.132 66.1236 778.677 65.6103 777.046Z" fill="url(#paint25_linear)"/>
</g>
<path d="M38.1005 774.424C38.1005 774.424 33.6111 787.867 41.1407 795.31L43.3144 793.731C43.3144 793.731 38.8643 779.058 41.355 775.613C36.9593 774.223 38.1005 774.424 38.1005 774.424Z" fill="#FF5252"/>
<path d="M41.2041 775.61C41.2041 775.61 42.1098 774.888 41.2041 773.587C40.2984 772.286 38.6167 773.3 38.6167 773.3C38.6167 773.3 38.0129 775.178 38.6167 775.61C39.2205 776.043 41.2041 775.61 41.2041 775.61Z" fill="#F6B9AD"/>
<path d="M42.8012 790.917C42.8012 792.034 43.7548 792.94 44.9311 792.94C46.1075 792.94 47.0611 792.034 47.0611 790.917V788.971C47.0611 787.853 46.1075 786.947 44.9311 786.947C43.7548 786.947 42.8012 787.853 42.8012 788.971V790.917Z" fill="#F6B9AD"/>
<path opacity="0.2" d="M43.0095 794.596C43.0095 794.596 38.6137 780.104 41.0078 776.542C41.2192 776.504 41.355 776.476 41.355 776.476L41.3943 776.441L41.506 776.476C39.0152 779.915 43.4654 794.594 43.4654 794.594L41.2916 796.173L41.1014 795.978L43.0095 794.596Z" fill="white"/>
<path d="M44.8541 789.042C47.4586 789.042 49.5699 787.038 49.5699 784.566C49.5699 782.094 47.4586 780.09 44.8541 780.09C42.2497 780.09 40.1383 782.094 40.1383 784.566C40.1383 787.038 42.2497 789.042 44.8541 789.042Z" fill="#F6B9AD"/>
<path opacity="0.2" d="M46.5297 790.92V788.971C46.5296 788.828 46.5134 788.686 46.4814 788.547C47.4024 788.098 48.1421 787.373 48.5864 786.486C49.0307 785.598 49.155 784.596 48.94 783.635C48.725 782.674 48.1827 781.806 47.3969 781.167C46.611 780.527 45.6252 780.15 44.5915 780.095H44.8572C45.915 780.095 46.9422 780.432 47.7737 781.053C48.6052 781.674 49.1928 782.542 49.4418 783.518C49.6909 784.493 49.5871 785.521 49.1471 786.434C48.7071 787.347 47.9565 788.093 47.0158 788.552C47.0478 788.692 47.0639 788.834 47.0641 788.976V790.925C47.0669 791.213 47.0044 791.498 46.8809 791.761C46.7574 792.023 46.5758 792.258 46.3484 792.448C46.1211 792.639 45.8532 792.78 45.5631 792.863C45.273 792.947 44.9673 792.97 44.667 792.931C45.1819 792.868 45.655 792.629 45.9977 792.259C46.3405 791.888 46.5296 791.412 46.5297 790.92V790.92Z" fill="white"/>
<path d="M40.0629 806.876C40.0629 806.876 49.1594 807.851 49.4945 806.876C50.5813 803.724 47.683 800.317 49.1322 798.652C50.6417 796.932 49.4945 794.602 49.4945 794.602C49.4945 793.415 48.9976 792.276 48.1132 791.437C47.2289 790.597 46.0294 790.126 44.7787 790.126C43.528 790.126 42.3285 790.597 41.4441 791.437C40.5597 792.276 40.0629 793.415 40.0629 794.602V806.876Z" fill="#FF5252"/>
<path opacity="0.2" d="M49.1443 798.652C50.6538 796.932 49.5065 794.602 49.5065 794.602C49.5065 793.415 49.0097 792.276 48.1253 791.437C47.2409 790.597 46.0414 790.126 44.7907 790.126C44.6881 790.126 44.5885 790.126 44.4888 790.14C45.6841 790.212 46.8057 790.714 47.6255 791.542C48.4454 792.371 48.9021 793.465 48.9027 794.602C48.9027 794.602 50.05 796.932 48.5404 798.652C47.0792 800.317 49.9896 803.721 48.9027 806.876C48.8001 807.177 47.8611 807.292 46.6143 807.309C48.151 807.324 49.3888 807.226 49.5065 806.876C50.6055 803.718 47.683 800.317 49.1443 798.652Z" fill="white"/>
<path d="M47.5653 806.59C50.8863 811.058 52.3566 817.81 51.4055 824.304L51.3784 824.498H48.5435C48.5435 824.498 49.422 822.042 48.5435 817.712C48.005 815.116 46.4736 812.801 44.2443 811.212L41.509 824.498H38.8703L41.509 806.59H47.5653Z" fill="#F6B9AD"/>
<path d="M63.5543 780.835C63.5543 780.835 64.6502 780.399 64.1793 778.9C63.7083 777.401 61.7942 777.906 61.7942 777.906C61.7942 777.906 60.6319 779.531 61.0817 780.115C61.5315 780.7 63.5543 780.835 63.5543 780.835Z" fill="#F6B9AD"/>
<path d="M47.4173 795.324C47.4173 795.324 61.5497 790.977 63.5513 780.835L60.9338 780.072C60.9338 780.072 50.533 791.094 46.1403 791.172C41.7475 791.249 47.4173 795.324 47.4173 795.324Z" fill="#FF5252"/>
<path opacity="0.2" d="M63.0713 780.846L63.5091 780.972C61.5074 791.114 47.3751 795.462 47.3751 795.462L47.1245 795.276C48.7941 794.725 61.2055 790.306 63.0713 780.846Z" fill="white"/>
<g opacity="0.2">
<path opacity="0.2" d="M43.6375 811.213L40.9022 824.499H41.506L44.1628 811.602C43.9948 811.464 43.8195 811.334 43.6375 811.213V811.213Z" fill="white"/>
<path opacity="0.2" d="M47.5653 806.59H46.9615C50.2825 811.058 51.7528 817.81 50.8018 824.304L50.7746 824.498H51.3784L51.4056 824.304C52.3566 817.81 50.8923 811.058 47.5653 806.59Z" fill="white"/>
</g>
<path opacity="0.2" d="M63.2615 780.746C63.2615 780.746 64.3574 780.31 63.8864 778.811C63.8292 778.6 63.7201 778.404 63.5679 778.24C63.4157 778.076 63.2249 777.949 63.0109 777.869C63.2879 777.917 63.5446 778.039 63.7511 778.22C63.9575 778.402 64.105 778.636 64.1763 778.895C64.6473 780.39 63.5513 780.829 63.5513 780.829C62.9512 780.785 62.358 780.68 61.7821 780.514C62.2676 780.63 62.7624 780.708 63.2615 780.746V780.746Z" fill="white"/>
<path d="M40.0629 806.389L34.3266 817.853C37.672 818.011 41.0013 818.394 44.2896 818.999C50.6297 820.145 53.6487 817.279 53.6487 817.279L49.5579 806.389H40.0629Z" fill="#263238"/>
<path d="M41.5845 824.444C41.5845 824.444 44.6036 825.017 43.9997 826.164H38.5654L38.8673 824.444H41.5845Z" fill="#FF5252"/>
<path d="M51.2455 824.444C51.2455 824.444 54.2646 825.017 53.6608 826.164H48.2265L48.5284 824.444H51.2455Z" fill="#FF5252"/>
<path d="M49.1322 780.883C49.1322 780.883 41.8864 790.627 45.2074 794.639L32.2253 794.353C32.2253 794.353 35.8482 772.286 49.1322 780.883Z" fill="#FCCC63"/>
<path opacity="0.2" d="M49.1322 780.883C47.2604 779.671 45.5817 779.069 44.0752 778.929C45.3418 779.307 46.5386 779.869 47.6226 780.597C47.6226 780.597 40.3769 790.341 43.6978 794.353L32.2706 794.101C32.2404 794.264 32.2253 794.353 32.2253 794.353L45.2074 794.639C41.8864 790.627 49.1322 780.883 49.1322 780.883Z" fill="white"/>
<path opacity="0.2" d="M49.573 806.389H48.6672L52.7581 817.279C52.7581 817.279 50.8078 819.128 46.7501 819.26C51.4206 819.403 53.6638 817.279 53.6638 817.279L49.573 806.389Z" fill="white"/>
<path opacity="0.2" d="M41.5845 824.444H40.9807C40.9807 824.444 43.9998 825.017 43.3959 826.164H43.9998C44.6036 825.017 41.5845 824.444 41.5845 824.444Z" fill="white"/>
<path opacity="0.2" d="M51.2455 824.444H50.6417C50.6417 824.444 53.6608 825.017 53.057 826.164H53.6608C54.2646 825.017 51.2455 824.444 51.2455 824.444Z" fill="white"/>
<path d="M292.772 726.054H177.141V730.21H292.772V726.054Z" fill="#F5F5F5"/>
<path d="M295.159 696.956H175V839.101H295.159V696.956Z" fill="url(#paint26_linear)"/>
<path d="M292.931 702.438H177.301V834.123H292.931V702.438Z" fill="white"/>
<path d="M179.981 701.435C180.565 701.435 181.038 700.986 181.038 700.432C181.038 699.878 180.565 699.429 179.981 699.429C179.398 699.429 178.925 699.878 178.925 700.432C178.925 700.986 179.398 701.435 179.981 701.435Z" fill="#FF5252"/>
<path d="M182.886 701.435C183.469 701.435 183.943 700.986 183.943 700.432C183.943 699.878 183.469 699.429 182.886 699.429C182.302 699.429 181.829 699.878 181.829 700.432C181.829 700.986 182.302 701.435 182.886 701.435Z" fill="#FFFF00"/>
<path d="M185.793 701.435C186.377 701.435 186.85 700.986 186.85 700.432C186.85 699.878 186.377 699.429 185.793 699.429C185.21 699.429 184.737 699.878 184.737 700.432C184.737 700.986 185.21 701.435 185.793 701.435Z" fill="#69F0AE"/>
<g opacity="0.2">
<path opacity="0.2" d="M285.987 708.313H184.546V710.892H285.987V708.313Z" fill="#6C63FF"/>
</g>
<path d="M227.719 719.49H183.943V763.624H227.719V719.49Z" fill="url(#paint27_linear)"/>
<path d="M226.813 720.923H184.848V762.191H226.813V720.923Z" fill="white"/>
<path d="M285.828 769.328H242.051V813.462H285.828V769.328Z" fill="url(#paint28_linear)"/>
<path d="M284.922 770.761H242.957V812.029H284.922V770.761Z" fill="white"/>
<path d="M287.639 823.779H184.689V854.157H287.639V823.779Z" fill="url(#paint29_linear)"/>
<path opacity="0.5" d="M285.828 825.785H186.802V853.011H285.828V825.785Z" fill="#6C63FF"/>
<path opacity="0.5" d="M189.218 828.364H285.828V825.785H186.802V853.011H189.218V828.364Z" fill="white"/>
<path d="M219.908 729.674C217.045 726.515 213.102 724.411 208.77 723.732C204.438 723.052 199.993 723.84 196.211 725.957C192.429 728.074 189.551 731.385 188.081 735.312C186.61 739.24 186.641 743.532 188.168 747.44C189.694 751.348 192.62 754.622 196.432 756.689C200.244 758.757 204.7 759.487 209.022 758.751C213.344 758.016 217.256 755.861 220.073 752.665C222.891 749.469 224.436 745.434 224.437 741.266C224.442 737.012 222.835 732.897 219.908 729.674V729.674ZM212.36 751.876C209.896 753.262 207.019 753.835 204.176 753.507C201.333 753.179 198.684 751.968 196.641 750.062C194.599 748.156 193.278 745.662 192.884 742.97C192.49 740.277 193.045 737.536 194.463 735.174C195.88 732.812 198.081 730.961 200.722 729.91C203.364 728.858 206.297 728.666 209.066 729.362C211.834 730.057 214.283 731.603 216.03 733.757C217.777 735.911 218.724 738.554 218.724 741.272C218.731 743.412 218.149 745.517 217.034 747.377C215.919 749.237 214.311 750.788 212.369 751.876H212.36Z" fill="url(#paint30_linear)"/>
<path d="M215.054 733.894L219.175 730.526C217.505 728.68 215.435 727.199 213.105 726.185C210.776 725.17 208.243 724.646 205.68 724.648V729.807C207.46 729.806 209.22 730.171 210.838 730.877C212.456 731.582 213.894 732.611 215.054 733.894V733.894Z" fill="#FF5252"/>
<path d="M205.521 781.075C203.758 781.076 202.016 780.718 200.412 780.024L198.169 784.726C200.781 785.851 203.641 786.36 206.506 786.211C209.37 786.061 212.153 785.257 214.62 783.867L211.842 779.428C209.931 780.51 207.746 781.079 205.521 781.075V781.075Z" fill="#69F0AE"/>
<path d="M223.492 741.554C223.498 737.504 221.965 733.588 219.175 730.523L215.054 733.891C216.237 735.189 217.106 736.719 217.598 738.371C218.091 740.023 218.195 741.758 217.904 743.452C217.613 745.147 216.934 746.76 215.914 748.178C214.894 749.596 213.558 750.784 212.002 751.659L214.779 756.098C217.436 754.599 219.636 752.471 221.164 749.921C222.691 747.371 223.494 744.487 223.492 741.554V741.554Z" fill="#FF9800"/>
<path d="M193.302 741.554C193.302 738.438 194.606 735.449 196.927 733.245C199.249 731.042 202.397 729.804 205.68 729.804V724.646C201.609 724.646 197.661 725.969 194.493 728.396C191.325 730.823 189.129 734.207 188.269 737.984C187.41 741.761 187.939 745.704 189.77 749.156C191.6 752.607 194.62 755.36 198.328 756.955L200.572 752.252C198.405 751.32 196.567 749.816 195.278 747.919C193.989 746.021 193.303 743.812 193.302 741.554V741.554Z" fill="#6C63FF"/>
<path d="M280.696 776.78H248.693V781.938H280.696V776.78Z" fill="url(#paint31_linear)"/>
<path d="M280.394 777.066H248.995V781.651H280.394V777.066Z" fill="#6C63FF"/>
<path d="M271.94 784.804H248.995V789.389H271.94V784.804Z" fill="#FF5252"/>
<path d="M264.694 792.542H248.995V797.127H264.694V792.542Z" fill="#69F0AE"/>
<path d="M277.375 800.279H248.995V804.865H277.375V800.279Z" fill="#FF9800"/>
<path d="M229.673 798.273H184.689V800.853H229.673V798.273Z" fill="#F5F5F5"/>
<path d="M210.049 802.572H184.689V805.151H210.049V802.572Z" fill="#F5F5F5"/>
<path d="M223.333 802.572H214.578V805.151H223.333V802.572Z" fill="#F5F5F5"/>
<path d="M223.333 812.029H214.578V814.609H223.333V812.029Z" fill="#F5F5F5"/>
<path d="M210.049 811.169H184.689V813.749H210.049V811.169Z" fill="#F5F5F5"/>
<path d="M229.673 806.871H184.689V809.45H229.673V806.871Z" fill="#F5F5F5"/>
<path d="M286.591 719.776H241.607V722.356H286.591V719.776Z" fill="#F5F5F5"/>
<path d="M266.967 724.075H241.607V726.654H266.967V724.075Z" fill="#F5F5F5"/>
<path d="M280.251 724.075H271.496V726.654H280.251V724.075Z" fill="#F5F5F5"/>
<path d="M280.251 733.532H271.496V736.112H280.251V733.532Z" fill="#F5F5F5"/>
<path d="M266.967 732.673H241.607V735.252H266.967V732.673Z" fill="#F5F5F5"/>
<path d="M286.591 728.374H241.607V730.953H286.591V728.374Z" fill="#F5F5F5"/>
<path d="M255.637 878.517C257.471 878.517 258.958 877.105 258.958 875.364C258.958 873.623 257.471 872.212 255.637 872.212C253.803 872.212 252.316 873.623 252.316 875.364C252.316 877.105 253.803 878.517 255.637 878.517Z" fill="url(#paint32_linear)"/>
<path d="M255.637 877.657C256.971 877.657 258.053 876.63 258.053 875.364C258.053 874.098 256.971 873.072 255.637 873.072C254.303 873.072 253.222 874.098 253.222 875.364C253.222 876.63 254.303 877.657 255.637 877.657Z" fill="#FF5252"/>
<path d="M261.373 840.401H157.517V875.078H261.373V840.401Z" fill="url(#paint33_linear)"/>
<path d="M259.562 841.834H160.536V869.059H259.562V841.834Z" fill="white"/>
<path d="M163.857 863.901H255.637" stroke="#6C63FF" stroke-width="3" stroke-miterlimit="10"/>
<path d="M178.349 847.279H164.763V863.041H178.349V847.279Z" fill="url(#paint34_linear)"/>
<path d="M177.594 847.995H165.518V862.611H177.594V847.995Z" fill="#6C63FF"/>
<path d="M253.222 858.456H241.146V863.041H253.222V858.456Z" fill="#69F0AE"/>
<path d="M230.579 852.438H218.503V862.755H230.579V852.438Z" fill="#FF9800"/>
<path d="M204.011 854.157H191.935V862.755H204.011V854.157Z" fill="#FF5252"/>
<path d="M259.562 869.059H160.536V873.071H259.562V869.059Z" fill="#FF5252"/>
<path d="M164.763 878.517C166.597 878.517 168.084 877.105 168.084 875.364C168.084 873.623 166.597 872.212 164.763 872.212C162.929 872.212 161.442 873.623 161.442 875.364C161.442 877.105 162.929 878.517 164.763 878.517Z" fill="url(#paint35_linear)"/>
<path d="M164.763 877.657C166.097 877.657 167.178 876.63 167.178 875.364C167.178 874.098 166.097 873.072 164.763 873.072C163.429 873.072 162.348 874.098 162.348 875.364C162.348 876.63 163.429 877.657 164.763 877.657Z" fill="#FF5252"/>
<path d="M160.536 842.98H158.121V873.072H160.536V842.98Z" fill="#FF5252"/>
<path opacity="0.2" d="M160.536 842.98H158.121V873.072H160.536V842.98Z" fill="black"/>
<path d="M160.696 846.179C160.696 846.147 160.696 846.118 160.696 846.087C160.696 846.055 160.696 845.992 160.696 845.946C160.696 845.901 160.696 845.886 160.678 845.858C160.66 845.829 160.657 845.772 160.642 845.731C160.627 845.691 160.624 845.677 160.612 845.648C160.6 845.62 160.576 845.568 160.557 845.528L160.521 845.456C160.497 845.416 160.47 845.376 160.443 845.339L160.403 845.284C160.364 845.233 160.322 845.183 160.277 845.135C160.036 844.892 159.75 844.692 159.434 844.545C159.682 844.293 159.866 843.991 159.975 843.662C160.006 843.574 160.03 843.484 160.047 843.393C160.047 843.364 160.047 843.336 160.047 843.31C160.055 843.255 160.06 843.199 160.062 843.144C160.062 843.112 160.062 843.083 160.062 843.052C160.062 843.02 160.062 842.957 160.062 842.911C160.062 842.866 160.062 842.851 160.044 842.823C160.026 842.794 160.023 842.737 160.008 842.697C159.993 842.656 159.99 842.642 159.978 842.613C159.966 842.585 159.942 842.533 159.923 842.493L159.887 842.421C159.863 842.381 159.836 842.341 159.809 842.304L159.769 842.249C159.73 842.198 159.687 842.148 159.643 842.1V842.1C159.341 841.801 158.976 841.566 158.571 841.413C158.571 841.413 156.654 842.086 156.527 842.826C155.12 843.112 146.92 844.731 141.29 844.602L141.247 844.496C141.248 843.632 141 842.783 140.53 842.043C140.06 841.302 139.387 840.697 138.582 840.292V838.492C138.586 838.416 138.586 838.339 138.582 838.263V838.263C138.573 838.19 138.561 838.117 138.545 838.045L138.582 838.025L138.735 837.945L138.959 837.816L139.101 837.727C139.205 837.658 139.306 837.586 139.403 837.509L139.517 837.415C139.587 837.357 139.653 837.3 139.72 837.24L139.837 837.131C139.92 837.051 139.998 836.969 140.073 836.885L140.154 836.787C140.225 836.703 140.292 836.617 140.357 836.529L140.438 836.412C140.497 836.326 140.553 836.238 140.607 836.148L140.659 836.062C140.725 835.948 140.785 835.827 140.84 835.707L140.885 835.598C140.927 835.5 140.966 835.405 141 835.311L141.036 835.205C141.078 835.073 141.115 834.942 141.145 834.807C141.145 834.781 141.145 834.752 141.16 834.727C141.182 834.612 141.2 834.496 141.214 834.38C141.214 834.34 141.214 834.303 141.214 834.262C141.214 834.119 141.238 833.976 141.238 833.83C141.238 833.015 141.017 832.215 140.595 831.505C140.918 831.431 141.115 831.371 141.09 831.342C140.967 831.184 140.843 831.035 140.713 830.892L140.589 830.757C140.499 830.66 140.411 830.568 140.32 830.471L140.176 830.33C140.085 830.245 139.994 830.164 139.904 830.087L139.762 829.967C139.647 829.875 139.533 829.786 139.418 829.7L139.342 829.643C139.203 829.545 139.065 829.454 138.923 829.356L138.766 829.264C138.675 829.21 138.582 829.158 138.488 829.112L138.301 829.021L138.041 828.903L137.851 828.823C137.76 828.786 137.667 828.754 137.573 828.723L137.401 828.663C137.262 828.62 137.123 828.579 136.984 828.545L136.77 828.499L136.538 828.453L136.305 828.419L136.091 828.396L135.852 828.376H135.647H135.408C135.278 828.376 135.147 828.382 135.016 828.393C131.927 828.634 129.222 831.193 129.222 835.271V838.636H134.053V840.166C133.185 840.546 132.449 841.154 131.934 841.919C131.418 842.683 131.143 843.571 131.142 844.479V857.522L127.043 875.401H126.988L126.182 878.815L131.967 879.703L132.217 879.74C132.821 879.494 131.81 878.339 131.354 877.448C131.307 877.355 131.267 877.259 131.233 877.161C131.169 876.981 131.131 876.794 131.118 876.605L135.562 862.766H135.541L135.647 862.442C135.647 862.442 141.305 864.735 142.76 869.346C143.94 873.072 143.207 875.496 142.887 876.281H142.866V876.327C142.802 876.476 142.757 876.559 142.757 876.559H142.866V879.09H148.982C149.55 878.818 148.345 878.024 147.744 877.37C147.548 877.163 147.41 876.911 147.346 876.639H147.449L147.497 876.433C148.266 873.043 148.089 869.521 146.985 866.215C145.88 862.909 143.886 859.934 141.199 857.585C141.21 857.569 141.219 857.553 141.226 857.536C141.804 855.859 142.159 854.12 142.286 852.36C146.962 852.784 153.185 852.481 157.837 849.059C158.281 848.74 158.706 848.398 159.108 848.033C159.51 848.004 160.213 847.792 160.603 846.714C160.634 846.627 160.658 846.536 160.675 846.445C160.675 846.416 160.675 846.388 160.675 846.362C160.686 846.301 160.693 846.24 160.696 846.179V846.179Z" fill="url(#paint36_linear)"/>
<path d="M136.193 851.228C136.193 851.228 150.353 855.501 158.196 848.362L156.533 846.296C156.533 846.296 141.317 849.514 137.691 847.156C134.065 844.797 136.193 851.228 136.193 851.228Z" fill="#6C63FF"/>
<path opacity="0.2" d="M157.798 848.093L158.076 848.437C150.226 855.578 136.073 851.303 136.073 851.303C136.073 851.303 136.036 851.194 135.982 851.016C137.67 851.495 150.48 854.765 157.798 848.093Z" fill="white"/>
<path d="M157.895 848.359C157.895 848.359 159.054 848.609 159.588 847.133C160.123 845.657 158.26 845.006 158.26 845.006C158.26 845.006 156.319 845.686 156.325 846.408C156.331 847.13 157.895 848.359 157.895 848.359Z" fill="#985454"/>
<path opacity="0.2" d="M157.71 848.127C157.71 848.127 158.87 848.377 159.404 846.901C159.487 846.697 159.518 846.478 159.494 846.26C159.47 846.043 159.393 845.835 159.268 845.651C159.464 845.843 159.599 846.084 159.655 846.346C159.712 846.608 159.689 846.88 159.588 847.13C159.054 848.609 157.895 848.357 157.895 848.357C157.434 847.989 157.017 847.575 156.651 847.121C156.974 847.484 157.328 847.821 157.71 848.127V848.127Z" fill="white"/>
<path d="M142.899 874.96H147.092C147.077 875.148 147.104 875.336 147.172 875.513C147.241 875.689 147.348 875.85 147.488 875.983C148.052 876.602 149.188 877.35 148.653 877.605H142.899V874.96Z" fill="#6C63FF"/>
<path opacity="0.2" d="M147.183 875.983C147.043 875.85 146.936 875.689 146.867 875.513C146.799 875.336 146.772 875.148 146.787 874.96H147.089C147.074 875.148 147.101 875.336 147.169 875.513C147.238 875.689 147.345 875.85 147.485 875.983C148.049 876.602 149.184 877.35 148.65 877.605H148.348C148.883 877.35 147.747 876.605 147.183 875.983Z" fill="white"/>
<path d="M127.963 874.141L131.888 874.751C131.78 875.195 131.843 875.66 132.066 876.063C132.495 876.923 133.458 877.995 132.878 878.227L127.197 877.367L127.963 874.141Z" fill="#6C63FF"/>
<path opacity="0.2" d="M131.767 876.061C131.544 875.658 131.481 875.192 131.589 874.748L127.951 874.175V874.129L131.876 874.739C131.768 875.183 131.831 875.649 132.054 876.052C132.483 876.912 133.446 877.984 132.866 878.216L132.628 878.178C133.075 877.898 132.178 876.869 131.767 876.061Z" fill="white"/>
<path d="M134.581 841.355C134.581 842.473 135.535 843.379 136.711 843.379C137.888 843.379 138.841 842.473 138.841 841.355V839.409C138.841 838.292 137.888 837.386 136.711 837.386C135.535 837.386 134.581 838.292 134.581 839.409V841.355Z" fill="#985454"/>
<path d="M136.634 839.481C139.239 839.481 141.35 837.477 141.35 835.005C141.35 832.532 139.239 830.528 136.634 830.528C134.03 830.528 131.918 832.532 131.918 835.005C131.918 837.477 134.03 839.481 136.634 839.481Z" fill="#985454"/>
<path opacity="0.2" d="M138.31 841.358V839.409C138.31 839.267 138.293 839.125 138.261 838.985C139.182 838.536 139.922 837.812 140.366 836.925C140.811 836.037 140.935 835.035 140.72 834.074C140.505 833.112 139.963 832.245 139.177 831.605C138.391 830.966 137.405 830.589 136.372 830.534H136.637C137.695 830.534 138.722 830.871 139.554 831.492C140.385 832.112 140.973 832.98 141.222 833.956C141.471 834.932 141.367 835.959 140.927 836.872C140.487 837.785 139.736 838.532 138.796 838.991C138.828 839.13 138.844 839.273 138.844 839.415V841.364C138.847 841.652 138.784 841.937 138.661 842.199C138.537 842.462 138.356 842.697 138.128 842.887C137.901 843.077 137.633 843.219 137.343 843.302C137.053 843.386 136.747 843.409 136.447 843.37C136.962 843.307 137.435 843.068 137.778 842.697C138.121 842.327 138.31 841.851 138.31 841.358Z" fill="white"/>
<path d="M131.843 857.315C131.843 857.315 140.939 858.29 141.275 857.315C143.632 850.454 141.275 845.041 141.275 845.041C141.275 843.854 140.778 842.715 139.893 841.876C139.009 841.036 137.809 840.564 136.559 840.564V840.564C135.308 840.564 134.109 841.036 133.224 841.876C132.34 842.715 131.843 843.854 131.843 845.041V857.315Z" fill="#6C63FF"/>
<path d="M131.843 857.315L127.734 875.224H131.843L136.103 861.938C136.103 861.938 141.428 864.104 142.796 868.437C144.164 872.771 142.796 875.224 142.796 875.224H147.216L147.261 875.029C147.987 871.838 147.817 868.522 146.768 865.413C145.719 862.304 143.828 859.512 141.284 857.315" fill="#263238"/>
<path opacity="0.2" d="M140.743 857.315C143.101 850.454 140.743 845.041 140.743 845.041C140.743 843.904 140.288 842.809 139.468 841.979C138.649 841.149 137.528 840.647 136.332 840.573C136.432 840.573 136.535 840.573 136.634 840.573C137.885 840.573 139.084 841.045 139.969 841.884C140.853 842.724 141.35 843.862 141.35 845.049C141.35 845.049 143.708 850.466 141.35 857.324C141.229 857.673 139.985 857.771 138.44 857.756C139.696 857.731 140.64 857.616 140.743 857.315Z" fill="white"/>
<g opacity="0.2">
<path opacity="0.2" d="M136.024 862.253L131.843 875.295H131.239L135.499 862.009C135.499 862.009 135.695 862.09 136.024 862.253Z" fill="white"/>
<path opacity="0.2" d="M140.668 857.387H141.271C143.816 859.583 145.707 862.376 146.756 865.485C147.805 868.594 147.975 871.91 147.249 875.101L147.204 875.295H146.6L146.645 875.101C147.372 871.91 147.202 868.594 146.152 865.485C145.103 862.376 143.212 859.583 140.668 857.387V857.387Z" fill="white"/>
</g>
<path d="M135.59 848.362C135.59 848.362 149.749 852.635 157.593 845.496L155.929 843.43C155.929 843.43 140.713 846.649 137.087 844.29C133.461 841.931 135.59 848.362 135.59 848.362Z" fill="#6C63FF"/>
<path opacity="0.2" d="M157.194 845.227L157.472 845.571C149.622 852.713 135.469 848.437 135.469 848.437C135.469 848.437 135.433 848.328 135.378 848.15C137.066 848.629 149.876 851.899 157.194 845.227Z" fill="white"/>
<path d="M157.291 845.494C157.291 845.494 158.45 845.743 158.984 844.267C159.519 842.791 157.656 842.141 157.656 842.141C157.656 842.141 155.715 842.82 155.721 843.542C155.727 844.264 157.291 845.494 157.291 845.494Z" fill="#985454"/>
<path opacity="0.2" d="M157.107 845.261C157.107 845.261 158.266 845.511 158.8 844.035C158.883 843.831 158.914 843.612 158.89 843.395C158.867 843.178 158.789 842.969 158.664 842.785C158.861 842.977 158.995 843.219 159.052 843.48C159.108 843.742 159.085 844.014 158.984 844.264C158.45 845.743 157.291 845.491 157.291 845.491C156.83 845.123 156.413 844.709 156.047 844.256C156.37 844.618 156.725 844.955 157.107 845.261V845.261Z" fill="white"/>
<path d="M136.987 833.52L136.685 839.538H130.044V836.343C130.044 829.926 137.19 827.49 141.214 832.646C141.314 832.787 136.987 833.52 136.987 833.52Z" fill="#263238"/>
<path opacity="0.2" d="M135.496 829.892C137.19 830.024 138.932 830.901 140.308 832.663C140.408 832.789 136.082 833.523 136.082 833.523L135.78 839.541H136.685L136.987 833.523C136.987 833.523 141.314 832.789 141.214 832.663C139.593 830.583 137.461 829.752 135.496 829.892Z" fill="white"/>
</g>
<defs>
<linearGradient id="paint0_linear" x1="1771.61" y1="257.445" x2="1771.61" y2="111.529" gradientUnits="userSpaceOnUse">
<stop stop-color="#808080" stop-opacity="0.25"/>
<stop offset="0.54" stop-color="#808080" stop-opacity="0.12"/>
<stop offset="1" stop-color="#808080" stop-opacity="0.1"/>
</linearGradient>
<linearGradient id="paint1_linear" x1="12854.4" y1="16113.3" x2="12854.4" y2="9824.25" gradientUnits="userSpaceOnUse">
<stop stop-color="#808080" stop-opacity="0.25"/>
<stop offset="0.54" stop-color="#808080" stop-opacity="0.12"/>
<stop offset="1" stop-color="#808080" stop-opacity="0.1"/>
</linearGradient>
<linearGradient id="paint2_linear" x1="11943.7" y1="8932.87" x2="11943.7" y2="6490.57" gradientUnits="userSpaceOnUse">
<stop stop-color="#808080" stop-opacity="0.25"/>
<stop offset="0.54" stop-color="#808080" stop-opacity="0.12"/>
<stop offset="1" stop-color="#808080" stop-opacity="0.1"/>
</linearGradient>
<linearGradient id="paint3_linear" x1="12854.4" y1="24230" x2="12854.4" y2="17940.9" gradientUnits="userSpaceOnUse">
<stop stop-color="#808080" stop-opacity="0.25"/>
<stop offset="0.54" stop-color="#808080" stop-opacity="0.12"/>
<stop offset="1" stop-color="#808080" stop-opacity="0.1"/>
</linearGradient>
<linearGradient id="paint4_linear" x1="11943.7" y1="14009.8" x2="11943.7" y2="11567.5" gradientUnits="userSpaceOnUse">
<stop stop-color="#808080" stop-opacity="0.25"/>
<stop offset="0.54" stop-color="#808080" stop-opacity="0.12"/>
<stop offset="1" stop-color="#808080" stop-opacity="0.1"/>
</linearGradient>
<linearGradient id="paint5_linear" x1="88587" y1="101284" x2="100728" y2="36857.8" gradientUnits="userSpaceOnUse">
<stop stop-color="#808080" stop-opacity="0.25"/>
<stop offset="0.54" stop-color="#808080" stop-opacity="0.12"/>
<stop offset="1" stop-color="#808080" stop-opacity="0.1"/>
</linearGradient>
<linearGradient id="paint6_linear" x1="21324.1" y1="42690.2" x2="23299.1" y2="32210.4" gradientUnits="userSpaceOnUse">
<stop stop-color="#808080" stop-opacity="0.25"/>
<stop offset="0.54" stop-color="#808080" stop-opacity="0.12"/>
<stop offset="1" stop-color="#808080" stop-opacity="0.1"/>
</linearGradient>
<linearGradient id="paint7_linear" x1="1836.28" y1="251.195" x2="1836.28" y2="153.168" gradientUnits="userSpaceOnUse">
<stop stop-color="#B3B3B3" stop-opacity="0.25"/>
<stop offset="0.54" stop-color="#B3B3B3" stop-opacity="0.1"/>
<stop offset="1" stop-color="#B3B3B3" stop-opacity="0.05"/>
</linearGradient>
<linearGradient id="paint8_linear" x1="1804.33" y1="188.127" x2="1804.33" y2="183.41" gradientUnits="userSpaceOnUse">
<stop stop-opacity="0.12"/>
<stop offset="0.55" stop-opacity="0.09"/>
<stop offset="1" stop-opacity="0.02"/>
</linearGradient>
<linearGradient id="paint9_linear" x1="35059" y1="7161.59" x2="35059" y2="6302.01" gradientUnits="userSpaceOnUse">
<stop stop-opacity="0.12"/>
<stop offset="0.55" stop-opacity="0.09"/>
<stop offset="1" stop-opacity="0.02"/>
</linearGradient>
<linearGradient id="paint10_linear" x1="90.4936" y1="817.279" x2="90.4936" y2="678" gradientUnits="userSpaceOnUse">
<stop stop-color="#808080" stop-opacity="0.25"/>
<stop offset="0.54" stop-color="#808080" stop-opacity="0.12"/>
<stop offset="1" stop-color="#808080" stop-opacity="0.1"/>
</linearGradient>
<linearGradient id="paint11_linear" x1="3523.19" y1="1957.59" x2="3523.19" y2="1922.91" gradientUnits="userSpaceOnUse">
<stop stop-color="#808080" stop-opacity="0.25"/>
<stop offset="0.54" stop-color="#808080" stop-opacity="0.12"/>
<stop offset="1" stop-color="#808080" stop-opacity="0.1"/>
</linearGradient>
<linearGradient id="paint12_linear" x1="3523.19" y1="2150.17" x2="3523.19" y2="2115.5" gradientUnits="userSpaceOnUse">
<stop stop-color="#808080" stop-opacity="0.25"/>
<stop offset="0.54" stop-color="#808080" stop-opacity="0.12"/>
<stop offset="1" stop-color="#808080" stop-opacity="0.1"/>
</linearGradient>
<linearGradient id="paint13_linear" x1="5093.71" y1="2150.17" x2="5093.71" y2="2115.5" gradientUnits="userSpaceOnUse">
<stop stop-color="#808080" stop-opacity="0.25"/>
<stop offset="0.54" stop-color="#808080" stop-opacity="0.12"/>
<stop offset="1" stop-color="#808080" stop-opacity="0.1"/>
</linearGradient>
<linearGradient id="paint14_linear" x1="1954.22" y1="960.285" x2="1954.22" y2="925.608" gradientUnits="userSpaceOnUse">
<stop stop-color="#808080" stop-opacity="0.25"/>
<stop offset="0.54" stop-color="#808080" stop-opacity="0.12"/>
<stop offset="1" stop-color="#808080" stop-opacity="0.1"/>
</linearGradient>
<linearGradient id="paint15_linear" x1="1954.22" y1="1011.87" x2="1954.22" y2="977.193" gradientUnits="userSpaceOnUse">
<stop stop-color="#808080" stop-opacity="0.25"/>
<stop offset="0.54" stop-color="#808080" stop-opacity="0.12"/>
<stop offset="1" stop-color="#808080" stop-opacity="0.1"/>
</linearGradient>
<linearGradient id="paint16_linear" x1="1954.22" y1="1063.45" x2="1954.22" y2="1028.78" gradientUnits="userSpaceOnUse">
<stop stop-color="#808080" stop-opacity="0.25"/>
<stop offset="0.54" stop-color="#808080" stop-opacity="0.12"/>
<stop offset="1" stop-color="#808080" stop-opacity="0.1"/>
</linearGradient>
<linearGradient id="paint17_linear" x1="1954.22" y1="1115.04" x2="1954.22" y2="1080.36" gradientUnits="userSpaceOnUse">
<stop stop-color="#808080" stop-opacity="0.25"/>
<stop offset="0.54" stop-color="#808080" stop-opacity="0.12"/>
<stop offset="1" stop-color="#808080" stop-opacity="0.1"/>
</linearGradient>
<linearGradient id="paint18_linear" x1="23759.8" y1="15002" x2="23759.8" y2="8553.88" gradientUnits="userSpaceOnUse">
<stop stop-color="#808080" stop-opacity="0.25"/>
<stop offset="0.54" stop-color="#808080" stop-opacity="0.12"/>
<stop offset="1" stop-color="#808080" stop-opacity="0.1"/>
</linearGradient>
<linearGradient id="paint19_linear" x1="44552" y1="15931.8" x2="43981.9" y2="9332.46" gradientUnits="userSpaceOnUse">
<stop stop-color="#808080" stop-opacity="0.25"/>
<stop offset="0.54" stop-color="#808080" stop-opacity="0.12"/>
<stop offset="1" stop-color="#808080" stop-opacity="0.1"/>
</linearGradient>
<linearGradient id="paint20_linear" x1="2091.93" y1="1859.35" x2="2087.09" y2="1803.37" gradientUnits="userSpaceOnUse">
<stop stop-color="#808080" stop-opacity="0.25"/>
<stop offset="0.54" stop-color="#808080" stop-opacity="0.12"/>
<stop offset="1" stop-color="#808080" stop-opacity="0.1"/>
</linearGradient>
<linearGradient id="paint21_linear" x1="2279.45" y1="1824.8" x2="2274.61" y2="1768.82" gradientUnits="userSpaceOnUse">
<stop stop-color="#808080" stop-opacity="0.25"/>
<stop offset="0.54" stop-color="#808080" stop-opacity="0.12"/>
<stop offset="1" stop-color="#808080" stop-opacity="0.1"/>
</linearGradient>
<linearGradient id="paint22_linear" x1="210.075" y1="802.849" x2="210.075" y2="802.828" gradientUnits="userSpaceOnUse">
<stop stop-color="#808080" stop-opacity="0.25"/>
<stop offset="0.54" stop-color="#808080" stop-opacity="0.12"/>
<stop offset="1" stop-color="#808080" stop-opacity="0.1"/>
</linearGradient>
<linearGradient id="paint23_linear" x1="12050.1" y1="29550.7" x2="12050.1" y2="20994" gradientUnits="userSpaceOnUse">
<stop stop-color="#808080" stop-opacity="0.25"/>
<stop offset="0.54" stop-color="#808080" stop-opacity="0.12"/>
<stop offset="1" stop-color="#808080" stop-opacity="0.1"/>
</linearGradient>
<linearGradient id="paint24_linear" x1="64.6499" y1="810.032" x2="64.6499" y2="810.004" gradientUnits="userSpaceOnUse">
<stop stop-color="#808080" stop-opacity="0.25"/>
<stop offset="0.54" stop-color="#808080" stop-opacity="0.12"/>
<stop offset="1" stop-color="#808080" stop-opacity="0.1"/>
</linearGradient>
<linearGradient id="paint25_linear" x1="8011.8" y1="36734.5" x2="8011.8" y2="24986.7" gradientUnits="userSpaceOnUse">
<stop stop-color="#808080" stop-opacity="0.25"/>
<stop offset="0.54" stop-color="#808080" stop-opacity="0.12"/>
<stop offset="1" stop-color="#808080" stop-opacity="0.1"/>
</linearGradient>
<linearGradient id="paint26_linear" x1="83325.3" y1="94377.8" x2="83325.3" y2="23873.8" gradientUnits="userSpaceOnUse">
<stop stop-color="#808080" stop-opacity="0.25"/>
<stop offset="0.54" stop-color="#808080" stop-opacity="0.12"/>
<stop offset="1" stop-color="#808080" stop-opacity="0.1"/>
</linearGradient>
<linearGradient id="paint27_linear" x1="26236.3" y1="18182.4" x2="26236.3" y2="11385.8" gradientUnits="userSpaceOnUse">
<stop stop-color="#808080" stop-opacity="0.25"/>
<stop offset="0.54" stop-color="#808080" stop-opacity="0.12"/>
<stop offset="1" stop-color="#808080" stop-opacity="0.1"/>
</linearGradient>
<linearGradient id="paint28_linear" x1="34743.3" y1="21630.5" x2="34743.3" y2="14833.9" gradientUnits="userSpaceOnUse">
<stop stop-color="#808080" stop-opacity="0.25"/>
<stop offset="0.54" stop-color="#808080" stop-opacity="0.12"/>
<stop offset="1" stop-color="#808080" stop-opacity="0.1"/>
</linearGradient>
<linearGradient id="paint29_linear" x1="71850.7" y1="19496.4" x2="71850.7" y2="16276.4" gradientUnits="userSpaceOnUse">
<stop stop-color="#808080" stop-opacity="0.25"/>
<stop offset="0.54" stop-color="#808080" stop-opacity="0.12"/>
<stop offset="1" stop-color="#808080" stop-opacity="0.1"/>
</linearGradient>
<linearGradient id="paint30_linear" x1="28231.5" y1="17608.6" x2="28231.5" y2="13202.1" gradientUnits="userSpaceOnUse">
<stop stop-color="#808080" stop-opacity="0.25"/>
<stop offset="0.54" stop-color="#808080" stop-opacity="0.12"/>
<stop offset="1" stop-color="#808080" stop-opacity="0.1"/>
</linearGradient>
<linearGradient id="paint31_linear" x1="25550.3" y1="2647.66" x2="25550.3" y2="2554.8" gradientUnits="userSpaceOnUse">
<stop stop-color="#808080" stop-opacity="0.25"/>
<stop offset="0.54" stop-color="#808080" stop-opacity="0.12"/>
<stop offset="1" stop-color="#808080" stop-opacity="0.1"/>
</linearGradient>
<linearGradient id="paint32_linear" x1="5304.35" y1="5283.58" x2="5304.35" y2="5144.88" gradientUnits="userSpaceOnUse">
<stop stop-color="#808080" stop-opacity="0.25"/>
<stop offset="0.54" stop-color="#808080" stop-opacity="0.12"/>
<stop offset="1" stop-color="#808080" stop-opacity="0.1"/>
</linearGradient>
<linearGradient id="paint33_linear" x1="63262.7" y1="24686.8" x2="63262.7" y2="20490.9" gradientUnits="userSpaceOnUse">
<stop stop-color="#808080" stop-opacity="0.25"/>
<stop offset="0.54" stop-color="#808080" stop-opacity="0.12"/>
<stop offset="1" stop-color="#808080" stop-opacity="0.1"/>
</linearGradient>
<linearGradient id="paint34_linear" x1="6714.78" y1="11024.6" x2="6714.78" y2="10157.6" gradientUnits="userSpaceOnUse">
<stop stop-color="#808080" stop-opacity="0.25"/>
<stop offset="0.54" stop-color="#808080" stop-opacity="0.12"/>
<stop offset="1" stop-color="#808080" stop-opacity="0.1"/>
</linearGradient>
<linearGradient id="paint35_linear" x1="3214.21" y1="5283.58" x2="3214.21" y2="5144.88" gradientUnits="userSpaceOnUse">
<stop stop-color="#808080" stop-opacity="0.25"/>
<stop offset="0.54" stop-color="#808080" stop-opacity="0.12"/>
<stop offset="1" stop-color="#808080" stop-opacity="0.1"/>
</linearGradient>
<linearGradient id="paint36_linear" x1="16912.1" y1="37234.9" x2="20857.1" y2="37234.9" gradientUnits="userSpaceOnUse">
<stop stop-color="#808080" stop-opacity="0.25"/>
<stop offset="0.54" stop-color="#808080" stop-opacity="0.12"/>
<stop offset="1" stop-color="#808080" stop-opacity="0.1"/>
</linearGradient>
<clipPath id="clip0">
<rect width="215" height="188.61" fill="white" transform="translate(1675 80)"/>
</clipPath>
<clipPath id="clip1">
<rect width="269" height="203.775" fill="white" transform="translate(26 678)"/>
</clipPath>
</defs>
</svg>
