<svg id="Capa_1" enable-background="new 0 0 512 512" height="512" viewBox="0 0 512 512" width="512" xmlns="http://www.w3.org/2000/svg"><path d="m497 391h-151l15 121h136c8.291 0 15-6.709 15-15v-91c0-8.291-6.709-15-15-15z" fill="#26bfbf"/><path d="m15 361c-8.291 0-15 6.709-15 15v121c0 8.291 6.709 15 15 15h136l15-151z" fill="#ffda2d"/><path d="m346 301h-180c-8.401 0-15 6.599-15 15v196h210v-196c0-8.401-6.599-15-15-15z" fill="#ff9100"/><path d="m361 316v196h-105v-211h90c8.401 0 15 6.599 15 15z" fill="#ff641a"/><path d="m271 376v60c0 8.399-6.599 15-15 15s-15-6.601-15-15v-60c0-8.401 6.599-15 15-15s15 6.599 15 15z" fill="#fdbf00"/><path d="m271 376v60c0 8.399-6.599 15-15 15v-90c8.401 0 15 6.599 15 15z" fill="#ff9100"/><path d="m181 196h150v60h-150z" fill="#465a61"/><path d="m256 196h75v60h-75z" fill="#3b4a51"/><path d="m406 0h-45l-15 30h45v15c0 24.814-20.186 45-45 45h-23.086c-8.291 0-15 6.709-15 15s6.709 15 15 15h23.086c41.353 0 75-33.647 75-75v-30c0-8.291-6.709-15-15-15z" fill="#fdbf00"/><path d="m189.086 90h-23.086c-24.814 0-45-20.186-45-45v-15h45l-15-30h-45c-8.291 0-15 6.709-15 15v30c0 41.353 33.647 75 75 75h23.086c8.291 0 15-6.709 15-15s-6.709-15-15-15z" fill="#ffda2d"/><path d="m361 0v45c0 32.999-15.901 64.499-42.599 84.3-18.6 13.5-29.7 36.4-31.5 59.799h-61.802c-1.8-23.399-12.9-46.298-31.5-59.799-26.698-19.801-42.599-51.301-42.599-84.3v-45z" fill="#fff261"/><path d="m361 196c0 8.399-6.599 15-15 15h-180c-8.401 0-15-6.601-15-15 0-8.401 6.599-15 15-15h180c8.401 0 15 6.599 15 15z" fill="#596c76"/><path d="m361 256c0 8.399-6.599 15-15 15h-180c-8.401 0-15-6.601-15-15 0-8.401 6.599-15 15-15h180c8.401 0 15 6.599 15 15z" fill="#596c76"/><path d="m286.901 189.099h-30.901v-189.099h105v45c0 32.999-15.901 64.499-42.599 84.3-18.6 13.5-29.7 36.4-31.5 59.799z" fill="#ffda2d"/><g fill="#465a61"><path d="m361 256c0 8.399-6.599 15-15 15h-90v-30h90c8.401 0 15 6.599 15 15z"/><path d="m346 211h-90v-30h90c8.401 0 15 6.599 15 15 0 8.399-6.599 15-15 15z"/></g></svg>